<svg xmlns="http://www.w3.org/2000/svg" viewBox="0 0 202.85 282.86"><defs><style>.cls-1{fill:#fff;}.cls-2{opacity:0.69;}.cls-3{fill:#88c1c4;}</style></defs><title>Asset 19</title><g id="Layer_2" data-name="Layer 2"><g id="Layer_1-2" data-name="Layer 1"><path class="cls-1" d="M151,84.44c-.15.64-.3,1.25-.3,1.25l.2,0C150.93,85.25,151,84.83,151,84.44Z"/><path class="cls-1" d="M148.87,82.85l-.05.36a1.09,1.09,0,0,1,.17,0Z"/><path class="cls-1" d="M150.88,85.72c.71.1,1.55-.3,2.07.58a25.27,25.27,0,0,1-1,3c.05.86.72.3,1.09.44-.32.75-.65,1.48-.47,1.57a.47.47,0,0,0,.27.24.37.37,0,0,0,.37-.13,5.27,5.27,0,0,0,1-1.53c-.32-2.11-.26-5.29-.81-6.81-.21-.75-.53-1.08-.87-.71S151.78,83.8,150.88,85.72Z"/><path class="cls-1" d="M150.08,80a22.9,22.9,0,0,1-.32,3.51c.4.44.7,1,1.23.77A7.83,7.83,0,0,0,150.08,80Z"/><path class="cls-1" d="M100.5,217.76c.12,0,.18,0,0,.54l0-.54c-.11,0-.28,0-.36-.21.32,1.89.64,4.11.81,6.26.22.27.45.53.67.77-.38-5.34-.67-10.67-1.91-15C99.85,212.68,100.31,214.78,100.5,217.76Z"/><path class="cls-1" d="M102.82,224.93c0,.19,0,.36,0,.54C103,225,102.94,224.93,102.82,224.93Z"/><path class="cls-1" d="M95.22,129.73a55.33,55.33,0,0,0-1.56-9.13c.58,6.22.91,12.61,1.73,17.35C95.3,135.22,95.24,132.49,95.22,129.73Z"/><path class="cls-1" d="M91,106a35.06,35.06,0,0,0,.81,10.68q-.25-4.9-.52-9.76C91.23,106.63,91.13,106.31,91,106Z"/><path class="cls-1" d="M92.26,110.56a43,43,0,0,0,1.4,10A95.7,95.7,0,0,0,92.26,110.56Z"/><path class="cls-1" d="M111.64,184.13a36.44,36.44,0,0,1,1.06,4.73c.29.36.64.84,1.09,1.49l0-.43q-.67-3.76-1.27-7.63a21.14,21.14,0,0,0-1-2.88C111.56,181,111.58,182.57,111.64,184.13Z"/><path class="cls-1" d="M112.7,188.86c-2.46-3.09.38,3.28,0,0Z"/><path class="cls-1" d="M99.84,173.47l0-.37c0-.36-.11-.73-.17-1.09C99.71,172.51,99.77,173,99.84,173.47Z"/><path class="cls-1" d="M104.62,143c.12,2.15.3,4.3.52,6.42-.29-4.37-.56-8.77-1.19-12.41,0,.54-.18,1.09-.17,1.64A13.65,13.65,0,0,1,104.62,143Z"/><path class="cls-1" d="M102.29,190.44c-.73-5.91-1.59-11.72-2.47-17.34-.45-11.47-1.17-22.52-2.91-32.44-1.71-8.74-1.4-24.07-4.53-32.81-.08.94-.12,1.84-.12,2.71a36.62,36.62,0,0,0-.94-3.62c-.35-7.23-.62-14.38-.81-21.57-.09-3.6-.16-7.2-.21-10.82l-.06-5.46c0-2.06,0-4.12,0-6.2,0-4-.52-7.2.76-10.76a17.36,17.36,0,0,1,6.79-8.78s-.09-.05-.2,0a20.73,20.73,0,0,1,11.2-3.38,27.36,27.36,0,0,1,3.13.07l3.19.33c.53,0,1.07.11,1.6.2l1.38.23q1,.15,2,.36a63.33,63.33,0,0,1,16.25,5.44,45.74,45.74,0,0,1,13.5,11,4.18,4.18,0,0,1,1.07,2,5.68,5.68,0,0,0,.52,1.65,41.12,41.12,0,0,1,3,8.31,37.14,37.14,0,0,1,1.09,9.72l-.59,0a12,12,0,0,1-.09,3c-.47-.94-.87-2.15-1.33-3.25a14.7,14.7,0,0,0-1.35-2.73c-.44-.61-.8-.83-1-.4a15,15,0,0,0-.68,3.49h0a8.86,8.86,0,0,0-.25-1.19l0-.13h0c-.13-.44-.25-.84-.39-1.2a10.52,10.52,0,0,0-.47-1,5.57,5.57,0,0,0-1.14-1.43,14.82,14.82,0,0,1,.37,1.6,14.54,14.54,0,0,1,.24,1.63.83.83,0,0,0-.84-.13l-.18-.26c-.06-.46-.14-.84-.14-.84a2,2,0,0,0-.51-.25c-1.23-2.53-3.45-5.81-3.84-4.76-.1.68,1,2.1,1.72,4a3.12,3.12,0,0,0-.09.44c-.42-1.25-.76-1.13-1-.91s-.53.54-.86-.12a21.79,21.79,0,0,0-2.78-5.15,28.84,28.84,0,0,0-8.36-8,36.84,36.84,0,0,0-10.68-4.64l-1-.26c-1-.24-1.9-.46-2.85-.65l-1.41-.29-1.32-.22a40.38,40.38,0,0,0-4.37-.58,3.05,3.05,0,0,1,.49-.38,7.51,7.51,0,0,0-3.73.43,4.15,4.15,0,0,0-2.42,2.74,11.63,11.63,0,0,0,0,4.59l.14,1.08.07.53c0,.2,0,.29.07.59.08,1,.16,2.07.25,3.11.31,4.17.56,8.4.65,12.77.15,9.16.56,18,1.23,27.26-.44-3.8-.84-7.59-1-11.48,0-1.75,0-3.49,0-5.18-.06,1.75,0,3.47,0,5.18-.08,6.73-.3,13.64,1.55,18.81-.16.56-.35.56-.35,1.1,0,3.82-.17,7.64.65,10.9.19,0,.21,1.63.59,1.08.23,3.27.26,7.08.7,10.34a19.42,19.42,0,0,0,1,4.21c1.23,11.65,2.58,23.13,4,35.64.3,3.11.45,6.71.58,9.86-.84-4.61-1.58-9.38-2.22-14.23,0-4.72-.14-9.23-1.26-12.92-.21-.86-.4-1.71-.59-2.58.57,5.23,1.16,10.42,1.85,15.5,0,2.79,0,5.65.08,8.45l0-.17c-.34-2.19-.65-4.39-1-6.61a55.22,55.22,0,0,0-.93-11.67c-.1-.43-.21-.86-.34-1.26q-.32-1.29-.6-2.58c.37,3.22.74,6.43,1.11,9.61.25,2,.51,3.94.76,5.9v3.73c0-.13-.1-.27-.16-.39-.23-1.08-2.63-4-3.16-2.39.16,4.18.62,9.21,1,13.19.2,2,.36,3.71.48,4.94a10.68,10.68,0,0,1,.12,2c-.77.58-2.39-13.74-2.55-13.19-.06.8-.1,1.61-.13,2.42-.19-.76-.38-1.5-.6-2.18-.25-1.63-.15-3.81-.58-4.89-1.29-3.77-1.07-8.15-2-12.48-.66-2.71-1.55-6-2.4-9.22-.39,0-.23-1.63-.61-1.08-.08-3.08-.15-6.64-1.31-8l0-.22a3.25,3.25,0,0,0-.17-.85c.1-5.14-1-8.7-1.83-13.35-.11-1.6-.19-3.23-.21-4.91a24.48,24.48,0,0,0,0,3.83c.06.36.12.72.17,1.08.32,4.15.87,8.09,1.38,12,.12.32.31.84.45,1.32,0,.28,0,.57,0,.85l.23.22c.62,3.77.93,8,1.58,11.23.82,6,.69,12.5.8,18.68-.43-3.06-.89-6.08-1.36-9,.45,3.72.91,7.22,1.4,10.62,0,.53,0,1,0,1.57l.13,3.27c0-1,.07-2,.09-3,.3,2,.61,4,1,6,1.37,10.9,2.36,22.16,2.63,33.24a7,7,0,0,1-.75-.71c-.39-5.33-.65-10.66-1.89-15,.14,3.09.58,5.2.77,8.17-.11,0-.27,0-.36-.21.32,1.89.64,4.1.82,6.26-.55-.67-1.09-1.42-1.63-2.16a24.19,24.19,0,0,1-.8-4.34c-.68-7.07-.9-13.75-1.66-20.71-.2-6.22-.4-12.44-.59-18.54C100.58,179.51,101.37,185.06,102.29,190.44Zm44.5-124.66a19.59,19.59,0,0,0-1.39-1.5,2.06,2.06,0,0,1,.07.32A4.7,4.7,0,0,0,146.79,65.78Zm-10.2-10.54c3.27,2.66,7.82,6.07,11.16,10.9a.33.33,0,0,0,.15,0A25.89,25.89,0,0,0,143,60.05,40.88,40.88,0,0,0,136.59,55.24Zm-13.92-11,.09.09v-.08ZM97.5,101.5c-1-4.38-1-9.84-1.37-15.3,0-1.64-.78-3.28-.78-5.47-.19-2.73-.58-4.37-.78-6.55l-.39,1.64c.2-3.83-1-6-.58-9.83-.2,0-.59-.55-.59-1.09l0-.54,0-.83c0-.54,0-1.09,0-1.63,0-1.09,0-2.16.12-3.18A38.09,38.09,0,0,1,94,53.24,14.11,14.11,0,0,1,97,48a18.1,18.1,0,0,1,4.34-3.42,19.5,19.5,0,0,1,3.77-2,23.71,23.71,0,0,1,6.62-.42l-.29-.18a19.1,19.1,0,0,0-5.52.27,17.71,17.71,0,0,0-7.41,3.42,15,15,0,0,0-4.69,6.51,22.4,22.4,0,0,0-1.2,9.52c0,.82.07,1.63.11,2.44l0,.49,0,.37.06.74c.09,1,.17,2,.25,2.93.34,3.89.73,7.71,1.12,11.54.19,1.63.58,3.28.78,4.91.78,4.92.58,10.93,2,14.21A9.38,9.38,0,0,0,97.5,101.5Zm8.49,6.09A105.59,105.59,0,0,1,104.93,90c0-4.37-1.16-16.93-3.51-14.74C105.67,80.69,101.5,111.39,106,107.59ZM110,153a47.73,47.73,0,0,1-.72-7.05Zm-8.31-23.08c1.42,7.08,1.74,14.71,2.66,21.78.7,5.44-.12,11.46,1.4,16.32l.58,0-.21-.53c.06-1.92.33-3.47.45-5.08l.06.28,0-.48a16.32,16.32,0,0,0-.11-3.45c-.11-.59-.21-1.18-.32-1.78-.51-6.8-.93-13.81-2.24-20-.64-3.81-1.63-7.08-2.26-10.89A24.37,24.37,0,0,0,101.73,129.89Z"/><path class="cls-1" d="M102.36,180.35c.33,2.35.65,4.71.94,7.1.31,1.84.65,3.66,1,5.48,1.42,8.71,1.56,18.95,2.51,28.33a1.79,1.79,0,0,0,1.76-.12c.11-10.24-1.41-20.39-1.52-30.6l-.07-.23c-1.35-4.32-1.25-11.41-2.4-16.83-1.36-5.41-1.9-10.85-3-16.29C101.76,165.08,102.43,172.57,102.36,180.35Z"/><path class="cls-1" d="M91.84,116.7c.13,2.15.27,4.3.4,6.48.5,6,1.13,11.42,1.92,16.9-.16-4-.27-8.08-.3-12.17A72.85,72.85,0,0,0,91.84,116.7Z"/><path class="cls-1" d="M94.82,144.53c-.23-1.51-.44-3-.66-4.45.23,6,.58,11.9,1,17.82,1,9.7,2,19.41,3.47,29.07q.23,1.65.39,3.27c-.53-18.07-.81-36.07-3.46-51.39-.05-.28-.1-.6-.15-.9.21,7.31.65,14.54,1.14,21.74C96,154.64,95.43,149.58,94.82,144.53Z"/><path class="cls-1" d="M102,178.07l0,1.58.27,1.8c0-.37,0-.74,0-1.1C102.25,179.59,102.15,178.83,102,178.07Z"/><path class="cls-1" d="M106.61,162.36v-.2c-.16-1.72-.29-3.47-.43-5.23-.41-2.43-.78-5-1-7.56A93.44,93.44,0,0,0,106.61,162.36Z"/><path class="cls-1" d="M111,147.19l0-2.17-.37-1c0,.51,0,1,0,1.53Z"/><path class="cls-1" d="M107.47,115.11c.8,9.66,1.67,18.7,2.61,27.63.15.43.31.87.47,1.3a87.42,87.42,0,0,0-1.42-17.49,25.45,25.45,0,0,1-.8-3.8c-.22-5.16-.86-10.07-1.43-15,.18,2.34.37,4.71.56,7.13Z"/><path class="cls-1" d="M59.76,113.27l-.35,0,0,.19A2.7,2.7,0,0,0,59.76,113.27Z"/><path class="cls-1" d="M59.91,110.91H59.8a.83.83,0,0,1,0,.15A1.11,1.11,0,0,1,59.91,110.91Z"/><path class="cls-1" d="M59.43,113.5a7.32,7.32,0,0,1,.17,2.14l-.77.06c-.16.41.07.78.1,1.17-.19,0-.38,0-.36.22a.73.73,0,0,0,.53.94C59.73,115.78,61.8,114.84,59.43,113.5Z"/><path class="cls-1" d="M60.85,111.82l-1,.08a2.94,2.94,0,0,0,0,1.35A3,3,0,0,0,60.85,111.82Z"/><path class="cls-1" d="M140.2,113.58c0-.12.05-.18.2,0l-.2,0c0,.11,0,.27-.12.33a10.09,10.09,0,0,1,2.29-.17c.13-.19.26-.38.38-.58-1.91-.16-3.81-.44-5.5.38C138.34,113.69,139.14,113.47,140.2,113.58Z"/><path class="cls-1" d="M143.07,112l.2,0C143.12,111.84,143.09,111.9,143.07,112Z"/><path class="cls-1" d="M108.78,112.91a8.49,8.49,0,0,0-3.31,1.33,45.86,45.86,0,0,0,6.22-1.24C110.72,113,109.75,113,108.78,112.91Z"/><path class="cls-1" d="M100.24,116.61A4.82,4.82,0,0,0,104,116l-3.45.35Z"/><path class="cls-1" d="M101.88,115.45a6.63,6.63,0,0,0,3.59-1.21A13.22,13.22,0,0,0,101.88,115.45Z"/><path class="cls-1" d="M129.84,99.51a6.23,6.23,0,0,1,1.87-.67c.16-.26.39-.57.68-1l-.16,0c-1,.24-2,.45-2.95.64a5.53,5.53,0,0,0-1.17.71C128.69,99.32,129.26,99.44,129.84,99.51Z"/><path class="cls-1" d="M131.71,98.84c-1.45,2.18,1.24-.11,0,0Z"/><path class="cls-1" d="M124.63,110.43h-.14l-.4.09Z"/><path class="cls-1" d="M114.14,104a19,19,0,0,0,2.37-.24,16.8,16.8,0,0,0-4.6.67c.2,0,.39.22.59.24A2.47,2.47,0,0,1,114.14,104Z"/><path class="cls-1" d="M130.92,109.28a50.23,50.23,0,0,0-6.43,1.14,26.89,26.89,0,0,0-11.74,1.17c-3.2,1.33-8.63.68-11.82,3.7a3.63,3.63,0,0,0,.95.16,8.11,8.11,0,0,0-1.31.88c-5.09.53-10,.87-15.21.92-.77,0-1.33.61-2.1.62L81,118a.28.28,0,0,0,0,.13,64.92,64.92,0,0,0-9.42,1.61A43.4,43.4,0,0,1,67,120c-.57,0-.62-.74-1-.91a12.37,12.37,0,0,0-4.54-1.84l0-.58a1.29,1.29,0,0,1-.69,0c.64-2.25,2.72-3.2.35-4.54h0l.33-.22h0v0a3.1,3.1,0,0,0,1.07-1.43l-1,.08a2.32,2.32,0,0,0,0-.83l.08-.16.28,0a4,4,0,0,0,.08-.46c.83-.92,2.22-1.44,1.9-2.23-.24-.41-.88,0-1.61.31a1,1,0,0,0-.17-.19c1-.27-.1-1.36.48-1.6.79-.07,1.57-.3,2.36-.36A54.37,54.37,0,0,0,74,103.79l.42-.09a17.54,17.54,0,0,1,4.5-.28,4,4,0,0,1-.29.39,10.88,10.88,0,0,0,3.64-.2,41.56,41.56,0,0,1,9.15-1.81,84.48,84.48,0,0,0,10-1,22.34,22.34,0,0,1-4.23.85,17.32,17.32,0,0,0-1.9,0,10.07,10.07,0,0,0,1.9,0c2.46.13,5,.45,6.95-1.3.2.17.19.37.39.38,1.4.05,2.79.31,4-.4,0-.19.62-.16.44-.56a29.8,29.8,0,0,0,3.85-.36,4.07,4.07,0,0,0,1.63-.85c4.4-.77,8.77-1.43,13.56-1.94a23,23,0,0,1,3.71.22c-1.81.44-3.65.78-5.51,1.1-1.73-.32-3.42-.49-4.89.4-.34.16-.67.31-1,.44,2-.27,4-.53,5.89-.84,1,.19,2.08.41,3.11.54l-.06,0-2.54.45a7.47,7.47,0,0,0-4.38.14,4.74,4.74,0,0,0-.5.26c-.34.16-.67.3-1,.44l3.64-.5,2.24-.34,1.37.26-.16.14c-.43.15-1.78,2.32-1.24,3,3.07.26,7.48-.15,7.46.05.1.78-5.27,1.22-5.08,1.43s.56.23.85.33a6.18,6.18,0,0,0-.86.41c-.61.12-1.38-.16-1.82.19-1.51,1-3.05.49-4.7,1.11-1,.49-2.3,1.17-3.54,1.86,0,.38-.61.14-.44.55-1.11-.1-2.39-.2-3,.91l-.09,0a.73.73,0,0,0-.31.14c-1.83-.33-3.18.65-4.89,1.31a10.25,10.25,0,0,1-1.76.07c.39,0,1,.25,1.37.07l.39-.14a42,42,0,0,0,4.38-.91,4,4,0,0,1,.51-.4,1.59,1.59,0,0,1,.3.06,1.47,1.47,0,0,1,.1-.22c1.39-.48,2.94-.53,4.14-1,2.24-.49,4.53.08,6.74.41-1.14.21-2.26.46-3.36.73,1.36-.2,2.66-.41,3.92-.65l.56.06,1.18.14a10.94,10.94,0,0,0-1.07-.33c.76-.15,1.51-.3,2.25-.47a36.24,36.24,0,0,1,12.12.48c-.12.22-.24.45-.37.66-1.94-.16-3.85-.44-5.56.4,1.11.15,1.92-.1,3,0,0,.11,0,.27-.13.33a10.36,10.36,0,0,1,2.32-.17c-.32.47-.67.93-1,1.38s-1,.25-1.64.36c-2.57,0-4.93-.42-7.48-.24-2.2-.33-4.41-.66-6.59-.83C126.85,110.08,128.89,109.75,130.92,109.28ZM65.27,112.7c.19-.09.39-.2.59-.32l-.1-.13C65.57,112.26,65.4,112.46,65.27,112.7Zm4.54-.08c-1.35-.28-3.07.3-4.74.7a.86.86,0,0,0,0,.15A19.38,19.38,0,0,0,69.81,112.62Zm5.48,3.82,0-.06v.09Zm23.55-6.34c-1.59.94-3.53.87-5.48,1.25-.59,0-1.18.77-2,.77-1,.18-1.56.56-2.34.76l.59.39c-1.36-.19-2.13,1-3.48.6,0,.2-.19.59-.38.59-1,.2-1.94-.17-2.7.23a11.16,11.16,0,0,0-2.69.64c-.19,0-.56.6-.94.8s-.93.16-1.4.23l.07.15a3.11,3.11,0,0,0,1.15-.18,24.34,24.34,0,0,1,3.62-1,69.12,69.12,0,0,0,8.29-2c.58-.19,1.17-.58,1.75-.77,1.76-.77,3.89-.52,5.09-1.86C98.24,110.47,98.63,110.48,98.84,110.1Zm2.47-8.42a15.17,15.17,0,0,1-6.45.89c-1.6,0-6.18,1.1-5.38,3.47,1-2.13,4.27-2.13,7.13-2.12S101.93,103.94,101.31,101.68ZM118.24,99a7.83,7.83,0,0,1-2.66.39C116.47,99.3,117.35,99.15,118.24,99Zm-9,7.38c2.64-1.24,5.42-1.22,8.06-1.82,2-.41,4.12.73,6-.46l.06-.58-.22.17a17,17,0,0,1-1.79-.75l.11,0h-.18a2.24,2.24,0,0,0-1.27-.08l-.67.22a20,20,0,0,0-7.44,1.33c-1.42.5-2.66,1.42-4.07,1.93C108.23,106.37,108.81,106.6,109.22,106.42Z"/><path class="cls-1" d="M127.35,108.41c.88-.15,1.75-.27,2.64-.37.69-.17,1.38-.35,2.08-.55,3.28-.66,6.93.17,10.38.21a4.62,4.62,0,0,0,.25-1.75c-3.61-1.18-7.46-.63-11.12-1.39l-.1.06c-1.72,1-4.24.29-6.32,1.08-2.09,1-4.1,1.18-6.14,2C121.86,107.92,124.59,107.78,127.35,108.41Z"/><path class="cls-1" d="M104,116l2.29-.26a51.21,51.21,0,0,0,6-1.41c-1.42,0-2.86,0-4.29-.09C106.6,114.34,105.34,115.26,104,116Z"/><path class="cls-1" d="M114,113.83l-1.61.48c2.11,0,4.22-.1,6.32-.17,3.5-.51,7-.86,10.55-1.49.41-.06.8-.1,1.2-.13-6.37-1-12.81-1.76-18.41.36l-.32.12c2.59,0,5.17-.06,7.74-.14C117.61,113.12,115.78,113.41,114,113.83Z"/><path class="cls-1" d="M126.51,108.56l.56.08.67-.13-.39-.1Z"/><path class="cls-1" d="M121.36,103l-.07,0c-.64.06-1.29.1-1.94.14a24.41,24.41,0,0,1-2.84.66A14.82,14.82,0,0,0,121.36,103Z"/><path class="cls-1" d="M116.18,97.86l-.81-.06-.39.33.57.07Z"/><path class="cls-1" d="M104.13,100.33l10.34-1.79.51-.41a11.74,11.74,0,0,0-6.56.8c-.41.18-1,.73-1.44.71a26.36,26.36,0,0,0-5.57,1.14c.87-.13,1.74-.27,2.64-.44Z"/><g class="cls-2"><path class="cls-3" d="M150.18,277.46l-2.41-.2c1.54-.12,3.83-.13,6.44-.07-25.28-1.57-58.58-.62-80,.95-7.75-.05-14.63.41-15.37,1.05s5,1.21,12.79,1.27c1.72.07,3.73.12,5,.23,11.15,1,24.76,1.67,39.77,2.17l-8.8-.56c4.34.16,8.62.32,13.45.33l-1.67-.35c14.93.85,35.4.54,45.72-.68s6.71-2.89-8.22-3.74Z"/><path class="cls-3" d="M122.31,273.75l26.12,1.32,1.7.22-.57-1-.17.06c-8,.83-21.32,1.16-33.54,1.4l-4.36.14a15.79,15.79,0,0,0-3.92.53c-1,.47,2.79.91,8.49,1l6.56.09c16,.56,41.15.59,50.07-1.08,2-.38.25-.87-.18-1.32.61-.65-5.41-1.22-13.4-1.26s-14.87.44-15.42,1.09l-4.09-.13,3.21-.24c-2.26.57-9.55.7-15,1l-8.12.16,4.59,1.52,4.23-.2c-.33-.06-.95-.16-.89-.17,8-.41,15.62-.83,24.43-1.09l11.09-.56c3-.29,2.72-.72-.57-1l-4.92-.33,2.23.19-34.53-.91a32,32,0,0,0-4.87.14C119.72,273.5,120.48,273.68,122.31,273.75Z"/><path class="cls-3" d="M162.36,273.54c1.84.12,3.6.24,6.22.21l1.12-.12-3.59-.26C163.53,273.18,162.2,273.33,162.36,273.54Z"/><path class="cls-3" d="M169.7,273.63l1.5.11-1-.14h-.3Z"/><path class="cls-3" d="M113.1.34l52.73.41,7.49.05c1.79,0,3.58,0,5.35.1.88,0,1.72.18,2.58.29s1.67.31,2.49.51a23.33,23.33,0,0,1,15.18,12.61,24.85,24.85,0,0,1,2.29,9.91c.1,1.76,0,3.56,0,5.34l0,3.93-.06,13.21a7.61,7.61,0,0,0,.16,2.23,5.67,5.67,0,0,0,.16-2q0-6.61.07-13.21l0-3.76c0-1.79.06-3.62,0-5.4a25.72,25.72,0,0,0-2.15-10,23.84,23.84,0,0,0-6.08-8.19,26.09,26.09,0,0,0-4.23-2.92A25.24,25.24,0,0,0,181.87.94C181,.8,180.15.7,179.29.6S177.5.52,176.61.47H173.9L166.19.41,113.54,0a10.26,10.26,0,0,0-2.31.15C111.17.25,112,.33,113.1.34Z"/><path class="cls-3" d="M192.5,204.07c-.08-.84-.17-.81-.24.06a21.58,21.58,0,0,0,0,2.9c.06.7.18.68.24-.07A21.4,21.4,0,0,0,192.5,204.07Z"/><path class="cls-3" d="M185.1,196.52c-.13-4.92-.29-9.6-.54-13.77,0-.78,0-1.65,0-2.3-.15.28-.29-.66-.35-2.43-1.26-35-1.77-72.6-2.44-109.65a5.81,5.81,0,0,1-.36-1.57,99.4,99.4,0,0,1-.51-13l.1-4q.08-6.11.16-12.2l.07-6.09.08-3.46A6.82,6.82,0,0,0,178.66,22a6.63,6.63,0,0,0-3.1-1.3c-1.12-.13-2.26-.09-3.41-.14l-.72.06-.36,0-.64,0-2.76.09c-1.9.06-3.91.1-6,.12-14,.47-28,.92-42.38,1.26.9.1,1.44.23,1.44.37-.28.33-3.61.57-7.48.56l-5.87,0,16.83.25c.81,0,1.56,0,2.24.06l18.69,0,20.55-.15,5.09-.05,2.33-.05a7.33,7.33,0,0,1,2.19.13,5.38,5.38,0,0,1,2,.95,5.28,5.28,0,0,1,2,3.77c.05.73.06,1.47.09,2.21l0,1.32,0,2.49q.19,10,.37,19.83c.52,26.31,1.19,52.15,1.91,77.9a21.7,21.7,0,0,1,0,2.92c-.07.5-.18.41-.23-.54-1.64-32.45-3.8-60.53-4.87-97.23l-.12-4.09,0-1,0-.52c0-.1,0-.12,0-.14v-.08l-.06-.58a6.56,6.56,0,0,0-.42-2.19,3.33,3.33,0,0,0-3.64-1.77l-1,.11-.25,0-1,0-2,0-8.16.21-16.36.42c-21.83.53-43.81,1-66.19,1.42-11.7,0-23.18.05-34.57.14L34.22,29H32.86l-.24,0-.48,0a1.29,1.29,0,0,0-1.09,1.29c0,.15,0,.3,0,.45l0,.21v.13s0,0,0,.09v.53q.06,4.26.11,8.53.12,8.53.23,17.15c.16,11.51.31,23.17.46,35.1.41,32.24.64,63.59.78,94.77.05,15.59.1,31.13.15,46.72l0,11.54,0,0h3.39c23.63-.26,45.29,1.11,48.35,3,1.78,1.17-3.56,2.28-13.29,3l5.77,0,9.14.23A202.36,202.36,0,0,1,107,253.29l6.4.81c8.51,1.54,22.29,2.83,29.26,4.44l-1.57.6,1.65.18c5.44.45,9.1,1,10.36,1.64l-.52.74c-1.14.84-3.86,1.63-8.22,2.37.15.31-.38.62-1.51.91,3.72.75,5.49,1.54,2.54,2.41,2.24.22,1.87.54-.8.72-.92.06-2,.1-3.16.11h0c1.23.19,1.6.24,3.26.46l3.51.11,11.06.26c4.42.25,7.15.61,7.15.61,4.88,1.32,4.88,1.32,4.13,1.88-.29.06-.61.11-1,.16l5.24.27c1.11.1,1.86.22,1.86.22.17.3.17.3.84.41.22.12.17.23.17.23-2.19.34-2.19.34-2.25.43-.51.1-1.23.17-1.23.17l-4,.16-5.51-.79-1.19.27-1.28-.36.72.33-2.77-.2,3.17.29c-6.57-.12-6.57-.12-9.2-.11s-5.07,0-5.35.05c.23.1.24.18.24.18L135.17,273c-.64-.07-1.14-.14-1.61-.21a25,25,0,0,1-3.32.11l-3.59-.06-.77.05a0,0,0,0,0,0,0l-3,.15-.63,0h0l-13.12.67-6-.16,1.74.15c1.12.11.1.4.71.43,15,.62,31.33.87,47.44,1.2a26.1,26.1,0,0,1,6,.38c.38.24-1.69.46-4.65.49-32.64,1.57-72.73,1.35-106.26.1l-13.28-.21-4.26-.05-2.72,0c-.9,0-1.79-.08-2.69-.12s-1.74-.2-2.6-.31-1.69-.32-2.51-.56a25.42,25.42,0,0,1-4.78-1.89l1.72,1a23.77,23.77,0,0,1-8.46-6.39c-.25-.29-.48-.6-.72-.9a23.8,23.8,0,0,0,5.66,5.8,25,25,0,0,0,5.06,2.55,27.42,27.42,0,0,0,5.93,1.24c1,.1,2.08.13,3.12.18l3.16,0,4.66.07,3.75.09,14.75.41,29.4.9c10.72.29,19.93.79,30.06,1.17,2.61,0,4.42.22,4.11.44a22.3,22.3,0,0,1-5.29.33c-16.91.19-35,.19-52.27-.07-8.63-.14-17.06-.34-25-.62l-1.49-.05-2.3-.06c-1.76-.06-3.52,0-5.22-.17A26.79,26.79,0,0,1,16.51,277,25.61,25.61,0,0,1,3.72,265.08,27.25,27.25,0,0,1,.41,250.56c.08-5.93.2-7.49.36-10.19v-.27c-.16,1.29-.3,2.5-.45,3.8.11-4.62.48-7.08.63-11.29l-.6,1.56c.38-22.78.2-47.41,1.08-68.5,0-.85,0-1.64.06-2.43-.43-9.08-.84-18.26-.89-29-.07,3.65-.13,7.21-.2,10.86C.15,137.24,0,129.49,0,121.12c.06-22.66,1-48,2.58-60Q2.52,43.7,2.44,26.28A27.08,27.08,0,0,1,5,13.71a23.57,23.57,0,0,1,14.32-12A27.49,27.49,0,0,1,22.47,1,31.27,31.27,0,0,1,25.73.62C28,.48,30.23.57,32.48.53l4.3,0L102.59.07a22.48,22.48,0,0,1,4.7.28c.23.18-1.26.36-3.52.38q-23.56.47-47.43.75l-24.17.27a63.22,63.22,0,0,0-9.3.41A22.35,22.35,0,0,0,8,11.29,22.39,22.39,0,0,0,4.43,19.4,22.08,22.08,0,0,1,18.79,3.52a25,25,0,0,1,7.37-1.26c1.28-.06,2.59,0,3.89,0l3.55,0,5,0,10.09.1q20.19.18,40.69.24l10.5-.07c3.48,0,6.92,0,10.36.09h66.45a26.15,26.15,0,0,1,9.33,1.66,21.87,21.87,0,0,1,7.76,5.35,21.57,21.57,0,0,1,4.77,8.18,31.91,31.91,0,0,1,1.17,9.68q.08,7.22.15,14.55c.39,30.45.8,57.09,1.36,87.42.38,21.29.73,41.64,1.09,61.92.12,10.14.24,20.27.36,30.49q.06,7.66.11,15.41c0,2.59,0,5.18,0,7.79,0,1.3,0,2.61,0,3.92v3.69l-.05,1a24.22,24.22,0,0,1-1.95,8.27,24.81,24.81,0,0,1-3.92,6.16,21.76,21.76,0,0,1-4,3.53,8.52,8.52,0,0,1-2.31,1.24c-.73.14.75-.8,3-3.07a27.68,27.68,0,0,0,3.67-4.57,25.29,25.29,0,0,0,3-6.94,23.34,23.34,0,0,0,.69-4c0-.67.07-1.34.08-2v-1.09l-.07-4.11-.13-8.22q-.14-8.2-.28-16.41l-.54-32.78c-.33-21.86-.66-43.72-1-65.71s-.53-44.1-.68-66.45q0-8.39-.1-16.81l0-8.44,0-5.65a34.67,34.67,0,0,0-.48-6,20,20,0,0,0-5.33-10.42,20.46,20.46,0,0,0-10.27-5.7,32.77,32.77,0,0,0-6-.58h-5.89l-8.59,0-29.32-.08c.13.06.24.12.24.19,0,.25-.92.48-2.46.67l33.2.3c4-.06,7-.16,13.21-.17A24.21,24.21,0,0,1,184.42,6a18.94,18.94,0,0,1,6.79,4,19.24,19.24,0,0,1,4.66,6.42,20.21,20.21,0,0,1,1.26,3.78c.11.65.26,1.3.33,2l.2,2c.07,1.38.11,2.77.11,4.17l0,3.79.06,5.88c.17,15.73.23,31.72.1,48.21-.2,22.64-.74,43.13-1.24,64.08.3,26.53.59,53,.89,79.8a14.39,14.39,0,0,1-.1,2.56c-.09.39-.18-.19-.21-1.27-.57-18.43-1-37.32-1.39-56.38-.28,3-.66,4.8-1.06,4.56s-.8-2.57-1.07-6.13l0,13c0,2.67-.18,4.77-.39,4.7s-.39-2.19-.38-4.73q0-26.44.09-52.82c-.2-21.12-.4-42.17-.6-63.33a29.23,29.23,0,0,1-1,6.12h0l0,9.8q.88,44.82,1.33,90.61.21,22.86.28,45.89,0,11.5,0,23v6.49l0,.93a16.66,16.66,0,0,1-.22,1.85c-.1.61-.29,1.21-.44,1.81s-.4,1.18-.67,1.73a15.53,15.53,0,0,1-11.24,8.84,7.26,7.26,0,0,1-2.85.1c0-.05.27-.11.73-.16l.81-.08,1-.16a15.1,15.1,0,0,0,12.16-11.26,14.36,14.36,0,0,0,.38-2.16c.05-.72.09-1.52.08-2V241.17q0-13.92-.07-27.81v.07c-.06.75-.17.89-.24.07a23.38,23.38,0,0,1,0-2.9c.06-.86.17-.78.23-.08-.16-34.49-.56-68.74-1.15-102.54.1,31.41.15,62.81,0,94.18.12,3.42.23,6.82.36,10.3a15.45,15.45,0,0,1-.13,2.56c-.08.27-.18-.43-.2-1.4l-.09-2.88c0,5.94-.44,10.52-.94,10.42-.52-.32-.92-5.43-.9-11.59q-.07-24.78-.17-49.44l-.09-5.34c-.08-1.8-.16-3.58-.24-5.37q-.36,38.4-.7,76.54a14.31,14.31,0,0,1-.32,4.09c-.18,0-.33-1.72-.34-3.91-.72-44.74-1.2-90-1.53-135.54-.76-14.93-1.53-29.91-2.32-45.17,0,1.92,0,3.87,0,5.81,0,49.46,2.2,91.43,2.65,139.32a10.23,10.23,0,0,1-.14,2.35c-.09.13-.19-.68-.19-1.9-.3-23.37-1-44.7-1.58-67.89-.44-19.21-.84-37.47-1.42-55.32.21,36.49,1.16,71.49,1.59,107.64a37.58,37.58,0,0,1-.1,4.18,3,3,0,0,1,.13.89c.24,4.52.42,9.44.57,14.48a15.22,15.22,0,0,1-.1,2.69C185.25,198.18,185.16,197.59,185.1,196.52ZM53.79,270.23l.91.1-3.2-.18-4.45-.73Zm55.89-2.68h0l2.57.41ZM34.52,2.88H29.87a53.26,53.26,0,0,0-5.39.17,23.65,23.65,0,0,0-5.1,1,21.78,21.78,0,0,0-4.69,2.19,21.37,21.37,0,0,0-7.16,7.42,22.42,22.42,0,0,0-2.92,9.88c-.06.89-.09,1.79-.12,2.69l0,2.72,0,4.33-.11,7.13Q4.16,47.54,4,54.66C4,50,3.94,45.41,3.9,40.78,4,37,4,33.15,4.07,29.33a55.21,55.21,0,0,1,.45-8.21A22.1,22.1,0,0,1,7.15,13.7a21.54,21.54,0,0,1,12-9.76A25.69,25.69,0,0,1,27.08,2.8c1.37,0,2.76,0,4.13,0ZM91.28,273c-5.06-.38-9-.85-12.71-1.33-3.32.09-6.79.12-10.31.1-9.44-.05-18.65-.15-27.71-.29,1.18.26-1,.23-2.11.26l-3.4.06,29.22.61C73.15,272.58,82.81,272.69,91.28,273Zm67.5-1,.83.09-1.81.38Zm2.85-.65-1.38-.05A2.16,2.16,0,0,1,161.63,271.35Zm-12.7-.49c.75.11,1.2.17,1.79.21Zm-9-11.27L135,261.5l5.4-1.84Z"/></g></g></g></svg>