<svg xmlns="http://www.w3.org/2000/svg" viewBox="0 0 1195.77 710.81"><defs><style>.cls-1{fill:#f8ed3d;}.cls-2{fill:#88c1c4;}.cls-3,.cls-5{opacity:0.8;}.cls-4,.cls-5{fill:#fff;}</style></defs><title>Asset 18</title><g id="Layer_2" data-name="Layer 2"><g id="Layer_1-2" data-name="Layer 1"><path class="cls-1" d="M720.7,169.29a410.61,410.61,0,0,1,77.35,101,435,435,0,0,1,43.32,116l-1.31-5.9-.66-2.95-.75-2.91-3.07-11.64c-1.11-3.84-2.3-7.64-3.46-11.46s-2.45-7.59-3.75-11.34c-2.51-7.56-5.48-14.9-8.35-22.27-3.13-7.25-6.14-14.56-9.62-21.61a321.53,321.53,0,0,1,22.51,63.62,308.28,308.28,0,0,1,8.43,68.53A86.17,86.17,0,0,1,837.69,415c-.24-1.26-.49-2.55-.74-3.85l-.36-2c-.13-.65-.27-1.31-.41-2-.54-2.62-1.08-5.27-1.62-7.87a98.26,98.26,0,0,0-3.79-14.08,36,36,0,0,0-2.29-5.21,11.17,11.17,0,0,0-2.75-3.28l-2.55-10.35c-.89-3.43-1.9-6.82-2.84-10.23l-1.44-5.12-1.59-5-3.2-10.1-3.5-10c-.6-1.66-1.15-3.33-1.78-5l-1.9-4.92c-1.29-3.27-2.51-6.57-3.84-9.83l-4.12-9.7c-1.32-3.26-2.83-6.42-4.29-9.61s-2.9-6.4-4.46-9.54c-3.15-6.26-6.18-12.6-9.59-18.72-6.55-12.41-13.85-24.38-21.41-36.2C728.54,175.53,690,133.47,644,100c.72.18,1.44.37,2.14.57l2.05.66c1.35.46,2.67.93,4,1.42,2.59,1,5.07,2,7.44,3.16s4.66,2.29,6.79,3.57,4.12,2.64,6,4c7.79,5.46,13.81,12,19.24,18.36,5.23,6.62,9.9,13.14,14.37,19.6q1.69,2.4,3.44,4.71c1.18,1.53,2.36,3.05,3.53,4.58A86,86,0,0,0,720.7,169.29Z"/><path class="cls-1" d="M820,558l2.57-8.63c.83-2.87,1.74-5.7,2.39-8.56,1.37-5.71,2.93-11.34,3.94-17-.23,1.52-.45,3-.68,4.55s-.59,3-.89,4.49c-.62,3-1.27,5.93-2,8.82-.18.72-.36,1.44-.53,2.15s-.43,1.41-.64,2.12c-.43,1.4-.87,2.78-1.32,4.15C822,552.77,821.05,555.42,820,558Z"/><path class="cls-1" d="M114.35,279c-4.61,10.45-8.53,21.17-12,31.58C104.65,299.61,109.21,289.09,114.35,279Z"/><path class="cls-1" d="M584.72,111.59c-3.13-.87-6.21-1.82-9.3-2.79s-6.28-1.75-9.41-2.7a356.69,356.69,0,0,0-69.92-23.61c-3-.8-6.11-1.28-9.17-1.89l-9.24-1.76c-3.09-.53-6.2-.91-9.31-1.37s-6.23-.92-9.36-1.27l-9.43-.89c-3.15-.27-6.3-.65-9.46-.74l-9.51-.44c-1.59-.06-3.18-.17-4.77-.19h-4.77c27.66-.29,56.46,1.19,84.76,6.73S561.58,96.33,584.72,111.59Z"/><path class="cls-1" d="M623.13,148.83l7.48,5,1.87,1.26,1.81,1.33,3.6,2.7c2.4,1.81,4.81,3.6,7.17,5.46l6.92,5.76,3.43,2.9c1.14,1,2.23,2,3.33,3l6.58,6.11c1.1,1,2.16,2.06,3.2,3.13l3.13,3.2c2.07,2.15,4.17,4.24,6.16,6.45a277.35,277.35,0,0,1,40.12,56.62A312.34,312.34,0,0,0,677.2,196.2c-2-2.2-4.06-4.28-6.11-6.42s-4.1-4.3-6.26-6.34l-6.5-6.15L655,174.22l-3.39-2.95-6.84-5.9c-2.31-1.94-4.7-3.77-7.07-5.66l-3.56-2.82-1.79-1.41-1.84-1.33Z"/><path class="cls-1" d="M234.05,531.7a3.18,3.18,0,0,1,2.95-1.39,6.6,6.6,0,0,0,3.09.44c5.2,4.79,10.73,9.39,16.46,13.9,2.95,2.15,5.82,4.44,8.89,6.53,1.53,1.05,3,2.16,4.57,3.19l4.69,3.1a32.4,32.4,0,0,0-5.64-.94,16.08,16.08,0,0,1-5.45-1.47,58.51,58.51,0,0,1-8-6.74c-2.12-2.09-3.8-4.1-5.66-5.91a38.85,38.85,0,0,0-6.27-5.33A61.29,61.29,0,0,0,234.05,531.7Z"/><path class="cls-1" d="M120.21,267.67c0-.45,0-.9.07-1.35q1.36-2.62,2.71-5.21c.9-1.73,1.89-3.4,2.84-5.1.36-.31.68-.61,1.1-.95-1.06,2.14-2.21,4.22-3.33,6.32S121.36,265.58,120.21,267.67Z"/><path class="cls-1" d="M220.66,519.77c1.32-1.88,2.64-3.77,3-5.9A229.29,229.29,0,0,0,240,530.64a19.66,19.66,0,0,0-3-.33,17.76,17.76,0,0,1-3.9-2.2c-1.3-1-2.57-2.07-3.91-3.15-.66-.55-1.35-1.07-2-1.6s-1.35-1-2-1.5A15.9,15.9,0,0,0,220.66,519.77Z"/><path class="cls-1" d="M179.88,370.29a7.27,7.27,0,0,0-.37-3.12,18.06,18.06,0,0,0-1.26-3c-.5-1-1.05-1.88-1.52-2.69a14.18,14.18,0,0,1-1-2.07C181,349,187.2,339.54,194.19,329c-.26-2.28,1.47-6,1.28-10.6a72.85,72.85,0,0,0,8-3.89,149.06,149.06,0,0,0-10.13,17.9,154.79,154.79,0,0,0-14.79,62.22,100.66,100.66,0,0,1-.15-12.05c0-2,.31-4.07.5-6.13.11-1,.3-2,.45-3.08S179.64,371.32,179.88,370.29Z"/><path class="cls-1" d="M968,541.4a29.31,29.31,0,0,1-8.31,2.69c-1.47.28-2.86.48-4.39.65s-3.13.29-4.79.38a180.24,180.24,0,0,1-21.49-.4c-15-1.06-30.76-3.25-46.53-5.34-31.57-4.23-63.59-8.23-94-4.91,34.56,7.18,74.75,15,107.67,22,16.45,3.54,31.05,6.85,42.33,10.15a105.65,105.65,0,0,1,14.35,5.1c3.87,1.8,6.81,3.74,8.49,6.07s1.4,4.3-.72,6-6,2.94-11,3.67c-10.08,1.52-24.62.75-40.7-1.37-32.19-4.22-71-13.41-97.91-15.78l13.7,5.79c-6.84-2.9-13.7-5.79-20.24-4.11,13.64,5.73,40.74,12.84,48,20.27l-13.25,3.31c8.67,4.77,19.45,9,31.49,12.92S896,616,909.89,619.16c7,1.61,14.06,3.12,21.38,4.51s14.84,2.65,23,3.59c4.1.46,8.34.85,13,1s9.08.2,13.46,0a119.47,119.47,0,0,0,12.55-1.12,85.24,85.24,0,0,0,9.94-2.08,47.29,47.29,0,0,1-4.54,1.58c-1.76.51-3.69,1-5.64,1.34a97.79,97.79,0,0,1-12.07,1.5c-4.08.26-8.17.32-12.27.24-4.26-.07-8.1-.34-11.74-.69-7.24-.71-13.69-1.75-19.91-2.86s-12.17-2.34-18-3.6c-11.68-2.51-23-5.16-34.28-7.76s-22.53-5.18-33.83-7.65c-22.58-4.93-45.44-9.51-68.29-13-11.39-1.74-22.83-3.23-33.69-4.09-2.7-.21-5.36-.37-7.92-.49l-3.06-.12c-1,0-2,0-3,0A37.39,37.39,0,0,0,723.08,591c-1.13.35-2.26.67-3.4,1-1.56.47-3.23.94-4.83,1.46l-9.64,3.38c-1.62.54-3.2,1.22-4.8,1.86l-4.78,1.94c-3.2,1.23-6.36,2.74-9.53,4.17a390.34,390.34,0,0,0-37.92,20.25c-12.7,7.59-25.54,15.95-39,24.53s-27.62,17.34-42.85,25.45a317.79,317.79,0,0,1-48.68,21.2,279.36,279.36,0,0,1-52.76,12.12l-6.67.79-3.34.38-1.67.19-1.66.1-13.26.79c-2.22.17-4.4.14-6.59.16l-6.55,0h-6.55c-2.17-.06-4.31-.19-6.46-.29l-12.87-.68-12.62-1.29-6.29-.67c-2.07-.28-4.11-.61-6.16-.92l-12.28-1.91c-2.1-.22-4.11-.59-6.15-.91l-6.1-1c-4.05-.67-8.14-1.27-12.17-2l-11.93-2.3-6-1.14c-2-.37-4-.73-5.92-1.19L302,694l-5.84-1.28c-1.94-.42-3.9-.81-5.79-1.31l-22.86-5.57a466,466,0,0,1-93.23-34.63,373.31,373.31,0,0,1-84.82-58.13,337.9,337.9,0,0,1-36.22-38.72,333.07,333.07,0,0,1-30.17-44.62c-1.53-3-3.26-6.65-4.9-10.82-.83-2.09-1.73-4.28-2.56-6.6S14,487.54,13.11,485a265.94,265.94,0,0,1-8.62-34.69,287.49,287.49,0,0,1-4.26-39.2,298.84,298.84,0,0,1,.9-37.69,338.14,338.14,0,0,1,24.55-122c3.93-9.76,8.24-19.41,13.08-28.82s10-18.71,15.66-27.71l2.11-3.39,2.19-3.33c1.47-2.22,2.92-4.46,4.43-6.66,3.06-4.37,6.12-8.75,9.37-13s6.55-8.46,9.89-12.66l5.18-6.16,2.52-2.95,2.23-2.59q5-5.27,10.1-10.46c3.46-3.41,7-6.73,10.51-10.07,1.77-1.65,3.51-3.35,5.33-5l5.48-4.8,5.51-4.76,2.77-2.37,2.83-2.29q5.7-4.58,11.44-9.07c3.85-3,7.84-5.79,11.78-8.66,2-1.42,3.95-2.86,5.95-4.25l6.1-4.07,6.13-4c2-1.34,4.08-2.69,6.2-3.94l12.62-7.59c2.09-1.28,4.28-2.42,6.43-3.62l6.5-3.54,6.51-3.51,6.66-3.3,6.68-3.27c2.22-1.08,4.44-2.18,6.74-3.16l13.69-6c2.26-1,4.63-1.88,6.95-2.81l7-2.74c2.34-.9,4.66-1.83,7-2.68l7.16-2.48,7.16-2.44,3.59-1.21,3.65-1.1,14.63-4.31c4.94-1.32,9.92-2.54,14.89-3.78s10-2.28,15.08-3.33,10.1-2.12,15.26-2.88A449.05,449.05,0,0,1,413.53.31l8-.23c1.33,0,2.67-.09,4-.08l4,.05c5.38.07,10.77.13,16.17.26l16.26,1c1.35.09,2.71.15,4.07.27l4.08.41,8.16.84c2.73.29,5.46.56,8.19.88l8.17,1.2,8.19,1.23c1.37.21,2.74.4,4.11.64l4.08.78c5.45,1.05,10.91,2.1,16.38,3.22l16.32,3.92c1.09.27,2.18.56,3.28.87s2.17.71,3.26,1.09c2.16.78,4.32,1.64,6.44,2.55s4.19,1.88,6.18,2.89a60.36,60.36,0,0,1,5.69,3.16c7.1,4.52,12.4,9.23,14,12.79s-.46,6-7.87,6a91.24,91.24,0,0,1-15.36-1.63c-3.35-.48-7.09-1.11-11.27-1.91-2.08-.4-4.28-.84-6.58-1.33l-7.33-1.31-12.78-2-12.84-1.47-6.4-.73-6.43-.5-12.82-1-12.83-.48-6.4-.23h-6.4l-12.77,0-12.72.52-6.35.27-6.33.5-12.63,1L394,35.35c-2.09.26-4.18.46-6.26.77l-6.22,1c-4.14.67-8.3,1.25-12.42,2l-12.31,2.38c-4.12.73-8.17,1.71-12.22,2.64l-6.09,1.41c-2,.48-4.07.89-6.06,1.46,1.46-2,4.63-3.65,8.71-5.21,2-.77,4.31-1.5,6.74-2.21,1.21-.35,2.45-.72,3.73-1.05l3.93-.9,8.07-1.78,4-.92,2-.47,2-.41A70.38,70.38,0,0,0,385,30l-9.35.56c-3.08.23-6.17.34-9.16.72-6,.68-12,1.3-17.78,2.14s-11.51,1.91-17.18,3c-5.61,1.22-11.17,2.48-16.72,3.79a352.61,352.61,0,0,0-65.27,23.62c3.67-1.72,7.32-3.46,11-5.13l11.21-4.76,5.62-2.37,5.72-2.17L294.55,45c3.87-1.33,7.77-2.6,11.66-3.9l5.84-1.92C314,38.56,316,38,318,37.44l11.88-3.38c4-1.07,8-2,12.06-3A480.54,480.54,0,0,0,223,76.36a458.49,458.49,0,0,0-54.91,34.89,464.52,464.52,0,0,0-49.47,42.07,86.22,86.22,0,0,1-9,7.47c-.79.58-1.58,1.14-2.38,1.7l-1.21.82c-.41.27-.81.54-1.28.89-1.79,1.32-3.62,2.62-5.47,3.91l-2.79,1.95-2.77,2-5.62,4.06q-2.77,2.12-5.58,4.32l-2.81,2.25L77,185.05a112.57,112.57,0,0,0-20.55,23,97.45,97.45,0,0,0-14.06,33.29,312.78,312.78,0,0,1,62.28-74.87l1.13-1,.57-.5.52-.43,2.06-1.71,4.11-3.4q4.13-3.39,8.24-6.79l8.46-6.54c2.84-2.16,5.6-4.4,8.53-6.46l8.68-6.27c1.45-1,2.88-2.09,4.34-3.11l4.45-3,8.89-6c1.47-1,3-2,4.51-2.91l4.54-2.86c3-1.9,6-3.83,9.11-5.69l9.29-5.42c6.13-3.7,12.54-7,18.83-10.45,3.13-1.75,6.38-3.33,9.6-4.94l9.66-4.83c3.25-1.55,6.55-3,9.82-4.54l4.92-2.26,2.45-1.13,2.5-1.06a553.87,553.87,0,0,1,82.52-28.25,3.08,3.08,0,0,0-.47.6,379.29,379.29,0,0,1,75.16-12.38,408.41,408.41,0,0,1,75.67,2.36c-4-.28-8-.41-12-.62s-8-.44-11.9-.46S451,36.23,447.29,36l-2.79-.18-2.75-.11c-1.82-.09-3.61-.2-5.37-.34l7,.56c2.32.2,4.65.53,7,.79,4.64.58,9.27,1,13.87,1.71L478,40.64l3.44.55,3.41.69,6.81,1.37,6.8,1.37c2.26.44,4.49,1.07,6.74,1.6l13.42,3.32c8.83,2.64,17.7,5,26.31,8.12A420.14,420.14,0,0,1,642,105.3,506.15,506.15,0,0,0,571.27,76a428.42,428.42,0,0,0-75.65-17.43,415,415,0,0,0-77.91-3.14,424.31,424.31,0,0,0-76.84,11.28A450.43,450.43,0,0,0,201.41,127.5a458.22,458.22,0,0,0-58.77,45.62c-2.32,2-4.48,4.2-6.7,6.31l-6.59,6.38-1.65,1.61L126,189.21l-3.45,3.59c-2.3,2.4-4.47,4.91-6.68,7.36a251.53,251.53,0,0,0-23.52,31.59c10.36-10.66,21-22.11,32.36-33.55,1.42-1.43,2.89-2.81,4.33-4.24s2.91-2.89,4.25-4.12c2.75-2.57,5.49-5.19,8.23-7.82s5.54-5.19,8.35-7.76,5.59-5.16,8.44-7.65l8.63-7.34c1.44-1.2,2.86-2.42,4.32-3.58l4.42-3.41q4.41-3.37,8.8-6.59c3-2.06,6-4,8.95-5.94,11.88-7.62,24-13.33,35.62-16.44a509.89,509.89,0,0,0-54.13,36.11c-4.3,3.31-8.53,6.72-12.8,10.08-2.15,1.65-4.17,3.47-6.26,5.2L149.59,180c-2.1,1.73-4.11,3.55-6.12,5.38l-6.06,5.47-3,2.74-3.15,3-3.16,3c-1,1-2,2.09-3.07,3.13A280.26,280.26,0,0,0,55.07,325.24c.24-1.78.48-3.56.73-5.32l.81-5.28c.47-3.54,1.1-7,1.61-10.57a183,183,0,0,0-13.76,44.15l-1,5.8-.79,5.83-.37,2.93L42,365.72l-.51,5.88c-.48,7.87-.73,15.77-.43,23.66a278.7,278.7,0,0,0,5.49,46.79,379.58,379.58,0,0,0,12,44.66c.77,2.62,1.72,5.16,2.58,7.74S63,499.57,64,502.13c-.93-2.54-1.89-5.08-2.75-7.67s-1.85-5.13-2.64-7.75a285.41,285.41,0,0,1-3.52-161.47C51.74,349.53,48.59,375,49,405.93c1.62-8.44,3-18.53,4.8-29.37s4-22.44,7-33.8A265.82,265.82,0,0,1,73.2,298.52l2.12-5.33,1.06-2.66,1.15-2.63,2.3-5.25,2.46-5.16,1.24-2.57,1.32-2.54,2.64-5.06,2.79-5,1.41-2.48,1.48-2.43a220.93,220.93,0,0,0-23.9,64.67,213.6,213.6,0,0,0-3,64.7c.57-7.68,1.58-15.33,2.73-22.95s2.75-15.17,4.49-22.67,3.91-14.91,6.31-22.23c.58-1.84,1.26-3.65,1.88-5.47s1.27-3.63,2-5.42l2.07-5.39L88,297.36a244.78,244.78,0,0,1,50.37-75.83A246.7,246.7,0,0,0,90,306.79l-1.88,4.8c-.6,1.61-1.15,3.24-1.73,4.85-1.2,3.24-2.18,6.54-3.23,9.82-2,6.61-3.78,13.29-5.18,20.08a243.58,243.58,0,0,0-5.28,41.4c-.11,1.75-.14,3.5-.16,5.25l-.08,5.26.08,5.27,0,2.63.13,2.64.26,5.27.42,5.27c.24,3.52.74,7,1.12,10.53a252.28,252.28,0,0,0,9.08,41.57c-.82-2-1.57-4.08-2.36-6.1.69,2.06,1.35,4.12,2.08,6.17s1.52,4.06,2.27,6.09a253.65,253.65,0,0,0,29.87,60.12,152,152,0,0,0,19.86,22.48,196,196,0,0,0,23.14,18.2c2.45,2.16,4.82,4.37,7.27,6.47-3-1.28-5.28-2.16-5.9-1.53-.31.31-.18,1,.55,2.14a30.69,30.69,0,0,0,4.17,4.93,167.26,167.26,0,0,0,30.11,25.41,281,281,0,0,0,35.52,19.93c12.42,6,25.27,11.35,38.33,16.7,3.28,1.29,6.56,2.66,9.84,4s6.49,2.58,9.74,3.95c6.5,2.73,12.94,5.79,19.56,8.73A122.26,122.26,0,0,0,319,673.64l3.17,1.05,3.32.92q3.38.9,7,1.75c2.38.56,4.82,1.12,7.31,1.65l3.76.8,3.9.64c5.23.84,10.63,1.64,16.12,2.42,5.68,2.52,9,2.15,12.05,1.19l7.21.69c2.42.18,4.88.27,7.31.42,5.91.6,11.79,1.4,17.77,1.49q4.47.17,8.9.17H419c.74,0,1.48-.09,2.22-.14,1.48-.1,3-.23,4.43-.38H421.3c-.73,0-1.47,0-2.21,0l-2.19-.09q-4.41-.15-8.87-.25c-6,0-11.91-.5-17.89-.8l-6.64-.68-6.53-.88a26.25,26.25,0,0,1,13.13-1.86l-3.77-.54c-1.25-.18-2.51-.35-3.75-.61l-7.45-1.43c-5-1-10-1.83-14.88-3.09l-14.78-3.54-14.62-4.13c-2.43-.71-4.89-1.35-7.31-2.11L316.31,664c-4.82-1.57-9.66-3.09-14.47-4.71l-14.32-5.16-7.18-2.58c-2.39-.89-4.8-1.87-7.2-2.8l-3.61-1.41c-1.2-.48-2.39-1-3.58-1.5l-7.16-3c-4.71-2.17-9.48-4.21-14.13-6.55-2.33-1.15-4.7-2.22-7-3.45l-6.94-3.6c-2.3-1.22-4.57-2.52-6.86-3.77l-3.43-1.91-3.37-2c-2.25-1.35-4.54-2.61-6.74-4l-6.66-4.18c-4.37-2.92-8.78-5.78-13-8.88-8.56-6.13-16.94-12.57-24.92-19.54,2.45,1,5.28,2.45,7.87,3.68s5,2.25,6.48,2.76l-5.5-3c-1.83-1-3.61-2.1-5.42-3.17-3.65-2.1-7.14-4.43-10.7-6.74A304.9,304.9,0,0,1,130,548.56a294.88,294.88,0,0,1-24.29-33.66,80,80,0,0,0,16.23,16.41,283.51,283.51,0,0,1-14.81-25,274.25,274.25,0,0,1-12-26.55,258.18,258.18,0,0,1-15-56.4A254.1,254.1,0,0,1,90,306.79,244.39,244.39,0,0,1,151.91,217a517.18,517.18,0,0,1,41.37-33.5A488.1,488.1,0,0,1,237.81,155a295.92,295.92,0,0,0-51.73,27.85l-6.2,4.26c-2.07,1.43-4.15,2.86-6.14,4.41-4,3-8.1,6.07-12.06,9.27s-7.84,6.51-11.76,9.84L144.06,216l-5.69,5.56,3.54-3.93,1.77-2,1.84-1.91,3.68-3.82,3.68-3.6,7.39-7.16c2.47-2.38,5.07-4.62,7.6-6.94C178,182.92,188.76,174.35,199.7,166a426.5,426.5,0,0,1,70.79-42.68l9.47-4.25L284.7,117l4.82-1.93,9.65-3.83c3.24-1.21,6.53-2.3,9.79-3.45,6.51-2.38,13.2-4.21,19.83-6.2.83-.24,1.66-.51,2.5-.72l2.52-.63,5-1.26,5-1.24,2.52-.62c.84-.19,1.7-.34,2.55-.52,6.8-1.33,13.56-2.81,20.44-3.7,3.43-.49,6.84-1.06,10.28-1.45l10.34-1c1.72-.15,3.43-.36,5.16-.46l5.19-.25,10.35-.45,10.36,0,5.17,0c1.72.06,3.45.18,5.17.27-5,1.65-10.3,3.68-15.67,5.49l-4,1.38c-1.34.46-2.68,1-4,1.53-2.66,1-5.28,2.08-7.83,3.14l-3.75,1.59c-1.23.57-2.42,1.17-3.59,1.76-2.34,1.19-4.55,2.4-6.61,3.62a46.83,46.83,0,0,0-5.63,3.8,35.93,35.93,0,0,0-4.4,4.12c.38,1.08,2.72,1.62,5.7,1.92s6.66.63,9.67.86c6,.49,9.47,1.09.27,3.66-16.62,5.4-31.7,10.24-45.4,15.34-1.71.63-3.43,1.15-5.09,1.83l-4.93,1.92-4.82,1.86c-1.59.6-3.17,1.19-4.69,1.88-6.12,2.65-12,5-17.33,7.85-21.57,10.76-37,23.19-42,40.81-.1,1.06,1,1.73,2.9,2.13a24.49,24.49,0,0,0,3.46.43c1.35.11,2.87.2,4.51.25,3.29.11,7.05.09,11,.05s8.08.17,12,.31a94.09,94.09,0,0,1,11,1,40.55,40.55,0,0,1,8.15,1.83c2.05.83,3.33,1.82,3.55,3s-.62,2.44-2.76,4.14c-1.89,1.17-4,2.42-6.24,3.74-1.12.68-2.32,1.3-3.51,2.08l-3.7,2.31-3.93,2.42c-1.35.81-2.73,1.64-4.11,2.58q-4.17,2.75-8.71,5.65a458,458,0,0,0-38.44,28.85l-3.14,2-3.06,2.22L240,263.49c-1.05.75-2.05,1.57-3.05,2.41l-3,2.5c-2,1.69-4.09,3.35-6.1,5.12-1.3.56-2,3.16-2.94,6.25l-2.5,2.45c-.8.79-1.76,1.69-2.26,2.27l-1.82,1.94-.92,1-.87,1c-1.15,1.32-2.35,2.59-3.43,3.95l-1.66,2c-.56.65-1.06,1.35-1.59,2a174.55,174.55,0,0,0-11.18,15.89c-3.25,5.19-6,10.19-8.37,14.75s-4.26,8.71-6,12.13a136,136,0,0,0-6.46,15.78c-.5.64-1.06,1.25-1.6,1.84s-1.08,1.15-1.65,1.68a24.83,24.83,0,0,1-3.74,2.78,95.07,95.07,0,0,1,2.28,11.46,139.43,139.43,0,0,0-2.61,22.95,145.74,145.74,0,0,0,1.2,23.06c-.11,1.11-.15,2.21-.2,3.31l-.17,3.35-.05,3.35c0,1.12-.05,2.25,0,3.37l.07,3.39c0,1.13.14,2.24.21,3.37.11,2.27.4,4.51.69,6.75,1.45-.72,3-2.75,5-1.72a159.43,159.43,0,0,0,28.26,52,147,147,0,0,1,9.32,23.38c6.72,1.5,13.91,5,21.78,9.45s16.51,10,25.94,15.51a331.17,331.17,0,0,0,30.1,15.94c2.62,1.2,5.29,2.31,7.9,3.44s5.31,2.08,7.91,3.09c1.24.49,2.77,1,4.19,1.46l4.27,1.39c2.82.91,5.6,1.76,8.31,2.55l.1-.52a492.32,492.32,0,0,0,63.47,17.33q2.38,1.47,4.65,3.1c.75.54,1.49,1.1,2.22,1.67l2.14,1.69c5.42-1.74,10.72-1.19,13.35-2.06,3.9.73,7.66,1.56,11.32,2.46.93.25,1.81.41,2.69.57l2.63.52q2.61.54,5.19,1.13c.85.19,1.72.42,2.56.58l2.48.44,4.95.94c3.34.75,6.51,1.08,9.78,1.58a17.16,17.16,0,0,0,1.95-1.58c.73-.69,1.59-1.38,2.45-2.22a12.6,12.6,0,0,1,6.1-3.51,62.15,62.15,0,0,0,6.91-1,58,58,0,0,0,6.71-1.46c2.2-.61,4.38-1.17,6.54-1.83l6.41-2.3a238.55,238.55,0,0,0,32.38-12.17l3.63-1.61,3.74-1.79,3.74-1.79,1.88-.89,1.93-1,7.74-3.9,8-4.17c10.83-5.67,22.19-11.78,34.19-18s24.77-12.42,38-18.26l10.09-4.24c3.32-1.43,6.8-2.73,10.25-4l5.18-2c1.71-.65,3.44-1.29,5.22-1.87l10.57-3.55c2.42,1,3.65,2.91,4.93,4.86,3.52-2.75,8.25-4.71,13-6.44,1.17-.45,2.39-.81,3.58-1.18l3.54-1.12c3.09-1,6-2,8.63-3.11.73-.29,1.38-.56,2-.84a7.25,7.25,0,0,0-1.8,1.68c-.6.72-.76,1.37-.41,2l.82-.35a66.34,66.34,0,0,1,20.69-5.21,79.61,79.61,0,0,1,15.94.23c1.23.13,2.48.28,3.66.45s2,.34,3.06.53c2,.38,4,.8,6.11,1.22,4.2.86,8.8,1.77,14.36,2.59,5.09.23,9.92-1.67,14.85-1.92l7.13,1.27c11.77,6.16,23.41,9.1,35.45,10.88s24.39,2.42,37.2,4c12.67,2.7,25.21,5.34,37.6,7.76s24.63,4.65,36.32,6.3a75.93,75.93,0,0,1,20.18,5.19c1.24.51,2.42,1,3.52,1.52s2.31,1,3.5,1.39A21.68,21.68,0,0,0,968,541.4Z"/><path class="cls-1" d="M279.35,560.41c8.41,5.23,17.17,10.19,26.34,14.74,1.08.58,2.41,1.16,3.65,1.74l3.77,1.75,7.55,3.52,3.77,1.76c1.26.59,2.53,1.19,3.78,1.7l7.55,3.22c-2.8-.89-5.57-1.7-8.32-2.48s-5.49-1.74-8.2-2.58-5.38-1.72-8-2.61l-3.94-1.37c-.64-.23-1.31-.46-1.93-.7l-1.76-.74C294.19,574.49,285.75,569.05,279.35,560.41Z"/><path class="cls-1" d="M336.65,207.54a83.77,83.77,0,0,0,12.94,1.16,109.2,109.2,0,0,0,13.28-.16,311.77,311.77,0,0,0-33.12,11.31c-2.73,1.14-5.43,2.39-8.15,3.56-1.36.6-2.73,1.15-4.08,1.8l-4,2-4,2c-1.35.64-2.69,1.29-4,2l-8,4.26c-1.35.68-2.63,1.5-3.94,2.25l-3.93,2.3-3.93,2.29-3.86,2.46c-2.56,1.66-5.18,3.22-7.72,5l-7.6,5.22-1.91,1.31-1.85,1.38L259,260.36l-3.74,2.75c-1.26.91-2.44,1.93-3.66,2.88l-7.32,5.82-7.14,6.1-.39-.35c1.82-1.74,3.72-3.5,5.68-5.28l1.48-1.34,1.55-1.27,3.16-2.56,3.24-2.59c1.09-.86,2.17-1.74,3.33-2.54l6.91-4.94c2.29-1.71,4.75-3.19,7.14-4.78l3.6-2.36,1.8-1.18c.61-.39,1.23-.74,1.84-1.12,2.45-1.47,4.89-2.95,7.3-4.44l1.8-1.12,1.83-1,3.62-2.09,3.56-2.11,1.76-1.05,1.77-1q3.53-2,6.86-4l1.66-1,1.66-.94q1.65-.93,3.24-1.89c2.13-1.26,4.16-2.59,6.13-3.86s3.88-2.46,5.68-3.73c.9-.64,1.77-1.28,2.61-1.94s1.67-1.32,2.48-1.92A46.66,46.66,0,0,0,336.65,207.54Z"/><path class="cls-1" d="M237,530.31a19.66,19.66,0,0,1,3,.33.32.32,0,0,0,.12.11A6.6,6.6,0,0,1,237,530.31Z"/><path class="cls-1" d="M421.51,102.42c2,0,4-.11,6-.08a449.77,449.77,0,0,0-45.09,6.46c2.92-.84,6-1.63,9.08-2.36,1.56-.37,3.14-.73,4.74-1.07l4.88-.78c3.29-.5,6.65-1,10-1.4S418,102.66,421.51,102.42Z"/><path class="cls-1" d="M577.27,142.37c3.45,1.64,6.82,3.46,10.24,5.18l5.12,2.62c1.7.89,3.33,1.9,5,2.84l10,5.75c3.27,2,6.47,4.14,9.72,6.2l4.85,3.12c1.62,1,3.16,2.2,4.74,3.3l4.72,3.33c1.57,1.11,3.16,2.2,4.67,3.4l9.19,7c3,2.42,6,4.9,8.93,7.35C683,220,706,252.27,720,286.23a404.82,404.82,0,0,0-61.24-80.85,385.91,385.91,0,0,0-38.32-34.28A378.53,378.53,0,0,0,577.27,142.37Z"/><path class="cls-1" d="M425.3,194.77c1.16.18,2.33.36,3.49.56l3.46.81,6.87,1.65c2.27.63,4.52,1.39,6.76,2.05s4.47,1.27,6.66,2.13c-2.23-.42-4.5-.54-6.74-.78s-4.51-.48-6.77-.65l-6.81-.29-3.4-.18-3.43,0C427.07,198.45,425.55,196.38,425.3,194.77Z"/><path class="cls-1" d="M299.42,134.52l8.49-3.57c-6.79,4.27-13.54,8.47-20,13.18,1.07-1.07,3-2.67,5.09-4.43S297.53,136.18,299.42,134.52Z"/><path class="cls-1" d="M517.13,222.59l-4.37-2.32-4.45-2-4.45-2-1.11-.52c-.37-.16-.75-.29-1.13-.44l-2.27-.88c1,.07,2,.1,3,.12s2,.11,3,.11a57.89,57.89,0,0,0,6.27-.16,22.21,22.21,0,0,0,2.31,4.17A28.09,28.09,0,0,0,517.13,222.59Z"/><path class="cls-1" d="M604.4,282.64a181.23,181.23,0,0,1,17.67,21.89c-3.63-4.25-7.59-8.29-11.45-12.42-2-2-4-4-6-6-1-1-2-2-3.06-2.92l-3.07-2.88C601.41,281,603.89,281.44,604.4,282.64Z"/><path class="cls-2" d="M273.94,444.42l1.72,1.94a30.49,30.49,0,0,1-5.55-3.9q1.77,1.79,3.67,3.6l1.93,1.8,2,1.72c1.37,1.13,2.77,2.3,4.22,3.4s3,2.15,4.47,3.21A121,121,0,0,0,305.91,467a126.84,126.84,0,0,0,20.2,6.82,112.7,112.7,0,0,0,18.31,2.79,43.24,43.24,0,0,0,10.3,1.61c2.83.1,4.86-.36,5.36-1.13,1-1.58-4.33-3.89-11.67-5.86a35.61,35.61,0,0,1-4.54-1.82c-2.46-1.3-5-2.77-7.66-4.16l-4-2.24-2.07-1.12-2.09-1.2c-2.84-1.53-5.7-3.27-8.67-4.95q-2.19-1.37-4.46-2.71c-1.51-.88-3-1.91-4.52-2.85l3.42,2.58c1.17.83,2.35,1.65,3.5,2.45-1.79-1.08-3.59-2.08-5.41-3.23s-3.74-2.15-5.75-3.33c.27.51.68,1.1,1,1.61-5.85-4.36-12.93-9.13-19.79-13.51s-13.5-8.32-18.53-10.5-7.66-1.92-7.71.48c0,1.22.64,2.87,1.95,5a42.8,42.8,0,0,0,2.47,3.56q1.54,1.86,3.58,4C270.63,441.11,272.29,442.75,273.94,444.42Z"/><path class="cls-2" d="M293.55,468.77a205.08,205.08,0,0,1-21.87-18.12l-1.12-1.56-1.06,2.48.25,0c8.34,3.42,20.61,10.53,32.42,15.69,1.42.58,2.83,1.18,4.26,1.72,2.13.62,3.66.76,4.3.45s.34-1.21-.89-2.31a21.81,21.81,0,0,0-2.44-1.81c-1-.68-2.13-1.39-3.41-2.1-2-1.05-3.92-2.22-5.86-3.38-6.87-4.64-15.62-10.65-23.73-16.24s-15.69-10.59-20.73-12.2c-2.29-.69-1.76,1.54-2.2,2.76-.82.41-.29,2,1.32,4.25a42.51,42.51,0,0,0,3.18,3.68c.65.66,1.34,1.36,2.09,2.06s1.57,1.37,2.42,2.06c6.77,5.64,13.72,8.79,15.19,7.68l3.42,2.81-3.2-1.45c1.43.07,3.8,1.17,6.52,2.42l4.2,2.07c1.45.66,2.88,1.31,4.22,1.88,2.51,1.39,5.13,2.56,7.69,3.84-.78-2-1.53-3.93-2.25-5.86-1.38-.53-2.71-1.17-4.07-1.76.2.32.63.88.58.86-1.94-.85-3.89-1.62-5.78-2.52l-5.72-2.73c-1.88-1-3.78-2-5.73-3.1s-3.86-2.31-5.88-3.55c-1.75-1-3.46-2-5.17-3.06s-3.46-2-5.13-3.18c-3-1.52-3.5-.46-1.2,2.43,1.19,1.37,2.44,2.69,3.66,4l-1.59-1.91a252.78,252.78,0,0,0,29.69,23.32,14.49,14.49,0,0,0,4.83,2.22C295.7,470.7,295.2,469.88,293.55,468.77Z"/><path class="cls-2" d="M257.17,444.6a35.45,35.45,0,0,0-4.88-4.88l-1.16-.55,2.58,3.09C255.57,444.49,256.94,445.15,257.17,444.6Z"/><path class="cls-2" d="M251.13,439.17l-1-1.33c.19.35.38.7.57,1l.26.19Z"/><path class="cls-2" d="M798.54,382.86c22.45,2.44,44.75,5.9,67.8,12,1.44.4,2.87.75,4.33,1.19l4.4,1.32c2.9.83,5.93,1.9,8.92,2.93.75.26,1.48.49,2.25.79l2.33.91,4.64,1.85,4.89,2.23,2.29,1.08,1.68.82c8.94,4.49,17.87,8.58,26.7,12.07,1.19.5,2.25.66,2.39.44s-.69-.69-1.79-1.14c-8.8-3.47-17.7-7.56-26.61-12l-1.67-.82-.93-.45-1.23-.58L894,403.23c-1.61-.7-3.12-1.26-4.68-1.89s-3.14-1.26-4.62-1.74c-3-1-6.05-2.13-8.94-3s-5.89-1.8-8.75-2.53C844,387.94,821.67,384.48,799.2,382a6.47,6.47,0,0,0-3,.16C796.1,382.41,797.14,382.72,798.54,382.86Z"/><path class="cls-2" d="M1099.94,424.8c-.91.49-.8.72.26.58a12,12,0,0,0,3.35-1.06c.76-.41.64-.7-.27-.58A11.91,11.91,0,0,0,1099.94,424.8Z"/><path class="cls-2" d="M1097.19,446.34c-5.54,2.15-10.78,4.26-15.37,6.45a13.32,13.32,0,0,1-2.67.83c.46.28-.51,1-2.51,1.79-9.84,4-20,8-30.59,11.7a305.23,305.23,0,0,1-33.48,9.82,174.23,174.23,0,0,1-37.2,4.36,161.27,161.27,0,0,1-19.16-1c-3.15-.42-6.33-.76-9.43-1.34l-4.66-.81-4.59-1a5.12,5.12,0,0,1-2.29.4,36.36,36.36,0,0,1-7.41-.93,77.79,77.79,0,0,1-9.67-2.89l-4.9-2c-9.92-4-19.4-8.35-28.61-12.93l-6.85-3.49-.85-.44-.68-.33-1.25-.61c-.85-.4-1.61-.83-2.52-1.23-3.65-1.58-7.56-3.11-11.71-4.49-1.81-.26-3.67-.65-5.74-1s-4.22-.82-6.48-1.32c-7.74-1.15-15.65-2-23.64-2.74s-16.13-1.23-24.37-1.56c1,.38,1.59.78,1.54,1.14-.42.86-4.24,1-8.65.66l-6.68-.5,9.56,1.13,9.48,1.34c.91.13,1.75.29,2.5.46,3.46.45,7,.86,10.41,1.39l5.23.74,5.22.84,2.86.44,2.82.51,5.61,1c3.66.75,7.36,1.44,10.87,2.29l2.67.6c.89.21,1.72.45,2.58.67l2.57.66c.86.21,1.71.43,2.5.69,1.6.49,3.28.94,4.81,1.44s3,1,4.43,1.52l1.94.78,1,.38c.18.07.29.1.52.2l.74.33,5.86,2.57c1.93.87,3.91,1.7,5.9,2.51l5.95,2.44c8,3.14,16.19,6.08,24.61,8.64a227.17,227.17,0,0,0,26.07,6.22,167.55,167.55,0,0,0,27.29,2.52,165.18,165.18,0,0,0,27-2,217.84,217.84,0,0,0,25.27-5.62,14,14,0,0,1,3.72-.74c.68.06.64.37-.54.75a241.23,241.23,0,0,1-31,8.64,163.37,163.37,0,0,1-33.37,3.33,181,181,0,0,1-34.39-3.57,241.22,241.22,0,0,1-34.3-9.64c-3.45-1.2-6.77-2.49-10.12-3.77s-6.6-2.63-9.89-3.95l-2.45-1a3.21,3.21,0,0,0-.46-.16l-.36-.11-.7-.22c-1-.3-1.74-.63-3-.94l-3.35-1-3.72-.91c-1.19-.32-2.55-.58-3.87-.86s-2.61-.58-4-.83l-4.14-.75-2.07-.37-2.14-.33-4.26-.66c-1.42-.22-2.9-.38-4.35-.58l-4.36-.56-4.44-.48a520.17,520.17,0,0,0-73.32-2.22A348.86,348.86,0,0,0,678,463.7a230.65,230.65,0,0,0-33.36,9.55,130.79,130.79,0,0,0-27.65,14c-1.22.92-2.37,1.84-3.58,2.72l-.9.66-1.73,1.34-3.49,2.64c-4.6,3.42-9.1,6.57-13.65,9.63-9.07,6.09-18.23,11.7-27.57,16.94A405.27,405.27,0,0,1,507.89,548,353.26,353.26,0,0,1,444.94,565a306.73,306.73,0,0,1-67.36,4.09c-17.24-.58-33.74-3.89-45.89-8.19-3-1.1-5.82-2.14-8.29-3.26s-4.64-2.24-6.47-3.29c-3.65-2.16-5.93-4.15-6.59-5.69-.74-1.86,1-2.92,4.49-3.28a57.6,57.6,0,0,1,6.63-.09c2.65.08,5.67.39,9.08.64-2.62-.6-5.16-1.34-7.73-2.07l-3-1-3-1.07c-2-.72-4-1.42-5.94-2.17-11.2-4.29-20.05-9.52-25.07-13.71-2.32-1.9-4.67-3.69-6.9-5.66-4.22-4.39-9.89-9.5-15-14.78l-3.71-3.89c-1.17-1.33-2.29-2.62-3.33-3.88s-2-2.48-2.86-3.65-1.58-2.34-2.19-3.42l2.55-.2-1.46-1.58q-1.87-1.83-3.34-3.47a36.19,36.19,0,0,1-2.44-3.1,11.49,11.49,0,0,1-2.22-4.6l1.7-1.17a11.2,11.2,0,0,1,4.82-.49,26.5,26.5,0,0,1,3.23.45c1.16.22,2.45.48,3.82.83.32-.79,1.31-1.1,2.87-.95-2.54-4.2-3-7.06,1.2-7-1.83-2-1-2.4,1.87-1a28.83,28.83,0,0,1,3.19,1.84l0,0c-.89-1.23-1.15-1.59-2.4-3.15-2-1.58-3.13-2.59-3.13-2.59l-5.2-4.27c-1.21-1-2.3-2-4.52-4-.89-.93-1.68-1.78-2.34-2.56s-1.2-1.51-1.63-2.09c-.88-1.17-1.32-1.86-1.32-1.86-2-6.25-1.89-6.3-.29-6.85.34.11.7.25,1.08.39-2.94-3.33-3.14-3.57-3.92-4.48a17.21,17.21,0,0,1-1.16-1.83c.42-.72.42-.72.06-1.44a.8.8,0,0,1,.28-.57c2.42,1,2.42,1,2.64.82a12.12,12.12,0,0,1,1.31.59l3.59,2.67,3.27,5.56,1.48.3.47,1.67,0-1.21c1,1.22,1.54,1.76,1.79,2.07l.26.29c-1.14-1.38-1.69-2.1-2-2.47l-.27-.36c5.43,4.85,5.47,4.8,7.76,6.59a57.31,57.31,0,0,0,4.82,3.42.91.91,0,0,1,.06-.54c1.49,1.23,2.65,2.11,3.61,2.83l2.48,1.89c.76.57,1.5,1.17,2.45,1.86l3.63,2.59c.48.55.84,1,1.18,1.45a14.32,14.32,0,0,1,3.27,1.63l3.3,2.15.79.33a.17.17,0,0,0,0-.07c1.24.53,2.12.85,3.1,1.25l.65.24,0,0c2.12.84,5.21,2.15,13.48,4.84,2,1.07,3.89,2.12,5.7,3-.55-.37-1.07-.73-1.57-1.09-1-.74.33-1-.24-1.34-14-8.05-28.66-17.51-42-28.73-2.55-1.78-4.52-4-4.49-4.79s2.18.17,4.7,2.08c15.13,8.92,31.68,18,49,25.29a284.6,284.6,0,0,0,52.39,16.49,199.33,199.33,0,0,0,27.81,2.4l-1.36-.38c2.44.22,4.89.27,7.33.4h.79l-5.57-1.22L395,487a150.27,150.27,0,0,1-30.81-3.89,200,200,0,0,1-28.61-9c-10.12-3.95-18.22-8.7-26.87-14.11-2.31-1.26-3.69-2.52-3.15-2.9s2.87.38,5.1,1.59A248.82,248.82,0,0,0,334.49,468a251.32,251.32,0,0,0,24.88,6.81c16.62,3.71,33.06,5.6,47.17,7.15,3.19-.14,6.33-.35,9.33-.4s5.86-.11,8.49-.06l.29,0c-1.41-.21-2.71-.39-4.1-.65,4.81-.31,7.51.27,12-.06-.59-.45-1.3-.87-1.88-1.33a238.15,238.15,0,0,0,36.26-7.68c12.06-3.4,23.82-7.46,34.87-11,.87-.35,1.69-.66,2.5-1,8.62-5.14,17.14-10.59,27.33-16.51-3.56,1.8-7.06,3.52-10.67,5.21,7.24-4.58,14.37-9.14,22.1-13.86,5.2-3.2,10.57-6.52,15.56-9.71l3.9-2.5c1.9-1.22,3.79-2.4,5.67-3.56L571,417.1c.93-.58,1.87-1,2.8-1.51,1.87-1,3.71-1.9,5.53-2.81,14.61-7,27.59-10.07,36.07-11a302.77,302.77,0,0,1,42.75-11.93c14.23-2.93,28.42-5,42.57-6.47a573.9,573.9,0,0,1,84.47-2.23c2.9.12,5.48.61,6,1.14.26.49-1.68.82-4.57.71l-7.55-.17-7.55,0-3.78,0-3.78,0-7.56.09c-10.1.27-20.21.6-30.36,1.35s-20.32,1.69-30.52,2.92c-5.1.72-10.19,1.31-15.3,2.21l-7.67,1.27-7.67,1.48a464.75,464.75,0,0,1,51.56-4.92c17.17-.73,34.35-.72,51.67,0,4.41.14,8.85.19,13.31.4s8.75.57,13.08,1.16c11.05.87,22,2.13,32.83,3.73S849,396,860,398.53l8.31,2.05,8.43,2.36,4.31,1.39,2.16.69,1.08.35,1.11.41c3,1.13,5.88,2.1,9,3.55l2.34,1,2.07.93,3.39,1.54c2.27,1,4.54,2.08,6.82,3,4.57,2,9.16,3.8,13.77,5.53,15.8,5.84,30.25,9.48,44,10.51s27.07-.55,42.67-4.6c10.95-2.9,22.1-6.58,33.45-10.59l34.42-12.31c5.8-2.05,11.64-4.11,17.54-6.12l8.87-3,8.74-2.9,4-1.34c1.33-.44,2.56-.91,3.85-1.36s2.56-.9,3.74-1.37l1.81-.7c.62-.23,1.22-.46,1.76-.7,2.29-.93,4.46-1.86,6.34-2.78l1.41-.68,1.29-.69c.44-.22.87-.47,1.3-.72s.84-.47,1.34-.79c.94-.6,2.12-1.31,3.45-2.06.74-.42,1.4-.78,2.14-1.16s1.59-.81,2.32-1.16a34.24,34.24,0,0,1,4.13-1.64,5,5,0,0,1,2.4-.32c.83.27-.3,1.47-2.45,3.22s-5.27,4.11-7.71,5.73-4,2.69-6,3.84-4.17,2.25-6.65,3.36c-1.22.55-2.42,1.11-3.76,1.65s-2.57,1.1-4,1.62l-4.13,1.59-4.29,1.54L1096.07,404l-18.8,6.72c-12.47,4.47-24.82,9-36.91,13.06-6.07,2.07-12,3.95-18,5.73s-11.73,3.25-17.47,4.51A158.49,158.49,0,0,1,988,436.74a111.27,111.27,0,0,1-16.62.43c-2.77-.08-5.55-.4-8.35-.66l-4.2-.59c-1.41-.17-2.82-.5-4.24-.73l-2.12-.39-2.13-.48c-1.43-.33-2.85-.63-4.29-1-2.87-.79-5.74-1.49-8.64-2.43-5.78-1.72-11.62-3.9-17.48-6.16-2.93-1.22-5.87-2.37-8.81-3.67s-5.89-2.56-8.83-4L897.85,415l-1.1-.52-1.38-.63-3-1.31c-1-.42-2-.91-2.93-1.27l-2.84-1.09c-1.9-.72-3.82-1.47-5.66-2l-5.58-1.84-5.51-1.6c-1.85-.56-3.67-1-5.49-1.48s-3.66-1-5.48-1.39c-12.56-3-24.8-5.17-37-6.92a.86.86,0,0,1,.24.54c-.09.65-1.33,1.11-3.34,1.39q10.3,1.45,20.68,3.48c3.46.67,6.93,1.46,10.39,2.2s7,1.66,10.44,2.61c2.46.55,4.92,1.05,7.4,1.63l7.47,1.89c2.53.75,5,1.47,7.6,2.27l3.88,1.35c1.29.46,2.56.87,3.92,1.46l4,1.67,3.34,1.45,6.19,2.71c4.14,1.71,8.27,3.49,12.41,5.08,8.29,3.25,16.6,6.2,24.9,8.62a172.23,172.23,0,0,0,24.93,5.42A136.44,136.44,0,0,0,983.37,440c5.6,0,11.2-.21,16.85-.72s11.4-1.39,17.19-2.39,11.68-2.22,17.66-3.62c14.78-4.63,29.78-10,45-15.27,7.59-2.65,15.26-5.29,23-7.89l11.6-3.87c3.65-1.24,7.26-2.44,10.74-3.74a7.25,7.25,0,0,1,2.77-.67c.46.08,0,.53-1.13,1-2.39,1-4.73,2-7.23,3l-3.72,1.45-4,1.49-16.07,6-32.26,12c3.67-.36,6-.07,6.08,1s-2.29,3-6.16,5l14.91-4.68c3.09-.94,5.64-1.3,5.72-.74s-2.19,1.8-5.12,2.72c-10.16,3.21-20.27,6.42-30.36,9.44s-20.14,5.88-30.18,8.12a172.67,172.67,0,0,1-36,5.74,126.11,126.11,0,0,1-18-.47,141.09,141.09,0,0,1-18-2.87c1.56.79,2.91,1.5,4,2.17a9.65,9.65,0,0,1,2.39,2,0,0,0,0,1,0,0c1.88.42,3.79.62,5.67.94s3.78.5,5.67.72a141.48,141.48,0,0,0,26.11-.59,198.38,198.38,0,0,0,25.93-5c17.23-4.42,34.41-10.4,51.81-16.31,8.69-3,17.43-6,26.23-8.87l13.23-4.32,13.22-4.21c2.15-.7,4.32-1.37,6.43-2.12s4.24-1.44,6.3-2.23c4.18-1.53,8.21-3.19,12-5,1-.45,1.9-.92,2.82-1.42s1.84-1,2.75-1.51,1.84-1.09,2.76-1.63l2.88-1.8c1.94-1.24,4.19-2.59,6.44-3.85s4.67-2.41,7-3.41c1.48-.65,2.78-1,2.9-.74s-.93.91-2.25,1.46-2.83,1.28-4.24,1.93-2.8,1.42-4.13,2.2c-2.71,1.52-5.2,3.15-7.45,4.55s-4.45,2.71-6.74,3.86-4.62,2.26-7,3.3c-4.86,2.05-9.93,3.89-15.09,5.63-2.59.87-5.2,1.68-7.81,2.53l-8,2.54h.09c.91-.12,1.16.11.27.58a13.4,13.4,0,0,1-3.36,1c-1,.14-1-.16-.28-.57-19.91,6.39-39.53,13.31-59,19.78S1009.45,454,989.8,456.2c18.31-1.41,36.42-6.23,54.45-11.54s36.07-11.28,54.25-16.72l11.62-4.64a8.55,8.55,0,0,1,3.06-.6c.37.11-.35.61-1.46,1l-3.26,1.26c6.9-2,12.53-2.61,12.79-1.3,0,1.44-5.57,4.24-12.69,6.4-19,6.16-37.8,12.56-56.81,18.44l-6.11,2.08-6.06,2.42c15-4,29.77-8.51,44.55-12.88,7.39-2.19,14.77-4.38,22.15-6.5l22.19-6.36c2.52-.84,4.8-1.22,5-.78s-1.71,1.52-4.26,2.37l-38.43,13.41c-12.81,4.51-25.66,9.07-38.74,13.4a369,369,0,0,1-40.39,11.22A189.56,189.56,0,0,1,990.33,470a146.28,146.28,0,0,1-21.86.24,166.64,166.64,0,0,1-29.05-1.76,242.91,242.91,0,0,1-28.58-6.08c2.24.95,4.58,1.81,6.92,2.66,3.69,1.39,7.5,2.53,11.23,3.71s7.56,2.12,11.4,2.93a150.15,150.15,0,0,0,23.09,3.43,148.48,148.48,0,0,0,22.93-.24,165.22,165.22,0,0,0,21.93-3.49c7.1-1.58,14-3.49,20.75-5.61s13.41-4.37,20-6.72c13.22-4.68,26.38-9.59,40.06-14.26a5.39,5.39,0,0,1,2.82-.5c.22.18-.64.71-2,1.16-13.32,4.66-25.94,9.52-38.81,14.18s-26,9.19-40.54,12.49c-6,1.36-12.14,2.42-18.28,3.22-1.54.19-3.08.32-4.62.49s-3.08.3-4.63.38l-4.63.27-4.62.08-2.31,0-2.3-.06-4.6-.11-4.57-.3-2.28-.16-2.25-.23L951,475.3c-1.49-.19-3-.42-4.45-.63-3-.39-5.88-.95-8.79-1.47,2.94.69,5.85,1.4,8.85,1.93,1.49.27,3,.58,4.46.81l4.51.65c1.5.23,3,.39,4.53.53l4.53.43,4.55.23,2.28.11,2.27,0h4.54l4.52-.18,2.25-.1,2.24-.18,4.47-.38c5.9-.7,11.74-1.54,17.4-2.76a305.54,305.54,0,0,0,32.75-8.88c10.56-3.41,20.89-7,31.26-10.63a21.18,21.18,0,0,1,4.9-1.29c.06-.16.39-.4.93-.65,5-2.29,10.52-4.55,16.18-6.77a8.46,8.46,0,0,1,3.16-.74C1099,445.38,1098.38,445.82,1097.19,446.34ZM361.58,501.53l-1-.42,3.49,1,.59.33c.59.33,1.76,1,4.17,2.2l-2.3-.91Zm-62.93-11.62,0,0-1.6-1.61c-.4-.39-.62-.64-.62-.64C297.34,488.61,298.06,489.31,298.65,489.91Zm399.75-100c-12.22,1.23-24.41,2.79-36.63,4.79s-24.46,4.65-36.81,7.92c3-1.09,5.91-1.89,8.87-2.82l4.43-1.34,4.44-1.19A358.44,358.44,0,0,1,698.4,389.92ZM323.27,484.47c4.82,2.79,8.56,5.24,12.14,7.61,1.8.37,3.63.78,5.47,1.24s3.73.83,5.6,1.3a246,246,0,0,0,30.15,5.25c-1.24-.78,1.15-.52,2.38-.51s2.52,0,3.77,0c-5.33-.46-10.62-1.24-15.91-2.1s-10.52-2-15.74-3.43A171.39,171.39,0,0,1,323.27,484.47Zm-65.59-34.19-.57-.77,2.21.45Zm-3.6-.64,1.13,1.08A1.22,1.22,0,0,1,254.08,449.64Zm10.56,9.77a13.58,13.58,0,0,0-1.3-1.66Zm-8.39,30.85c2.69-.27,5.37-.59,8-.92-2.75.16-5.57.35-8.36.43Z"/><g class="cls-3"><path class="cls-4" d="M268.64,436.81a66.08,66.08,0,0,1,6.22-21.92l-2.23-8.07,4.39,6.39c1.49,2.11,3,4.16,4.57,6.27,1.12,1.33,2.34,2.54,3.55,3.84s2.44,2.61,3.75,3.84c2.59,2.5,5.25,5.07,8.06,7.47s5.7,4.79,8.59,7.19,5.91,4.59,8.94,6.71c1.5,1.09,3,2.19,4.51,3.2l4.49,3.1,4.47,3c1.46,1,3,1.88,4.4,2.84,2.88,1.94,5.75,3.62,8.44,5.46,1.37.85,2.7,1.7,4,2.57l1.91,1.3,1.88,1.23c-6.23-2.59-13.7-5.36-20.67-8.46-2.31-1-4.58-2.1-6.76-3.1s-4.17-2.11-6.06-3.09-3.54-2-5-2.94l2.1.47c-2.6-.63-5.23-1.25-7.82-2l-3.92-1.11c-1.32-.37-2.6-.82-3.9-1.24l-3.31-2.2c-1.09-.74-2.16-1.55-3.24-2.31l-3.23-2.32c-1.08-.78-2.11-1.62-3.17-2.42,1.06.8,2.09,1.64,3.17,2.42l3.23,2.32c1.08.76,2.15,1.57,3.24,2.31l3.31,2.2a246,246,0,0,1-27.9-12.88"/><path class="cls-4" d="M726.76,366.42l-.8-.1,4.29-1.89c17.25-3,34.57-5,50.82-7.31a263.09,263.09,0,0,1,62.29,1.19c4.35.65,8.71,1.27,13.16,2.17-4.59,0-9.1.21-13.61.34s-9,.46-13.42.75l-2.55-.27c-18.46-1.94-35.28-1.31-51.55,0s-32,3.49-48.63,5.08"/><path class="cls-4" d="M856.12,346.72a292.7,292.7,0,0,1,33.53,4c3,.54,5.91,1.06,9.05,1.79l4.65,1,1.17.26,1.22.32,2.46.65,4.92,1.34c.79.2,1.73.53,2.59.8l2.65.85,2.65.87c.89.3,1.73.56,2.75,1,2,.75,3.91,1.52,5.87,2.31l-1.15,2.45q-3.16-1.35-6.4-2.62c-2-.73-3.94-1.35-5.94-2l-3-1c-1-.29-1.88-.52-2.82-.79l-5.65-1.53c-1.88-.5-3.63-.87-5.46-1.31s-3.66-.9-5.42-1.28l-5.27-1.17c-1.76-.4-3.54-.84-5.23-1.2-3.76-.82-7.58-1.84-11.21-2.77l2.53,1.11-9.31-1.66-9.2-1.41"/><path class="cls-4" d="M904.43,359.89c3.81.94,7.49,1.79,11.67,3.12l3,.93,1.53.48,1.68.61c2.23.82,4.47,1.67,6.7,2.54a2.49,2.49,0,0,1,.52.41l.4.35.79.71-1-.4-.5-.2-.74-.3-3.73-1.54L921,365.11c-.65-.27-1.18-.44-1.76-.64l-1.7-.58-3.41-1.14c-1.12-.36-2.32-.79-3.35-1.06l-6.38-1.8"/><polyline class="cls-4" points="726.21 419.8 721.72 419.29 727.29 419.4 726.21 419.8"/><polyline class="cls-4" points="882.82 458.58 882.02 457.8 880.93 456.99 878.72 455.33 880.93 456.99 882.02 457.8 882.82 458.58"/><path class="cls-4" d="M878.71,455.34c-.24-.1-.53-.18-.8-.27.27.09.56.17.8.27"/><path class="cls-4" d="M999.78,404.33c-1.37-.51-2.73-.94-4-1.48,1.32.54,2.68,1,4,1.48"/><polyline class="cls-4" points="918.48 467.2 916.27 465.68 918.48 467.2"/><path class="cls-4" d="M507.05,435.4c-3.93.34-7.82.63-11.7.8,3.88-.17,7.77-.46,11.7-.8"/><path class="cls-4" d="M721.72,419.29c-3-.56-6-1-9.08-1.44,3,.46,6.05.88,9.08,1.44"/><path class="cls-4" d="M989.77,397.44l-1.3-.32c-.43-.11-.87-.26-1.3-.38l-2.6-.76c1.49.34,3,.8,4.48,1.11l.72.35"/><path class="cls-4" d="M1007.45,405.66c-1.32-.17-2.63-.34-3.9-.6s-2.55-.42-3.77-.73c1.64.29,3.34.42,5,.67.86.24,1.76.43,2.64.66"/><path class="cls-4" d="M956.3,386.92c1.68.32,3.39.72,5,1l4.88.8,1.56.76-1.56-.76,1.56.76-.08.29q-5.5-1.15-11.38-2.84"/><path class="cls-4" d="M999.69,400.73c-1.72-.5-3.42-.92-5.06-1.52l-2.45-.83-2.41-.94-1.3-.32c-.43-.11-.87-.26-1.3-.38l-2.6-.76c1.49.34,3,.8,4.48,1.11-4.78-1.8-9.64-3.91-14.91-6.36s-10.91-5.18-17.14-8.34c-.74.26-1.49.53-2.26.75,5.7,2.46,11.25,4.67,16.54,6.41l-5.08-.84,1.56.76,3.2,1.24-3.28-.95A134.84,134.84,0,0,0,983,396.33L980,394.8l-2.92-1.69c1.22.59,2.48,1.28,3.69,1.81l3.68,1.66c-.5-.05-1-.17-1.54-.25,1.11.62,2.19,1.12,3.3,1.66l1.67.81c.56.27,1.11.48,1.68.73l2.49.42,2.51.31c1.67.25,3.38.32,5.09.47m-15.2-4.15,1.52.17-1.52-.17"/><path class="cls-4" d="M989.05,397.09c-1.49-.31-3-.77-4.48-1.11,1.49.34,3,.8,4.48,1.11"/><polyline class="cls-4" points="967.76 389.47 966.21 388.71 967.76 389.47"/><path class="cls-4" d="M1021,404.32c-1.62.15-3.14.14-4.7.21-2.19.1-4.24,0-6.34,0A92.91,92.91,0,0,1,992.63,401c-1-.43-2-1-3-1.42l2.49.42,2.51.31c1.67.25,3.38.32,5.09.47a99.75,99.75,0,0,0,21.3,3.59"/><polyline class="cls-4" points="970.96 390.71 967.68 389.76 967.76 389.47 970.96 390.71"/><polyline class="cls-4" points="970.96 390.71 967.68 389.76 970.96 390.71"/><path class="cls-4" d="M1022.93,404.25c-1.24.16-2.5.36-3.72.51l-2.92-.23c1.56-.07,3.08-.06,4.7-.21l1.94-.07"/><path class="cls-4" d="M1020.11,404.8l-.9,0,.9,0"/><path class="cls-4" d="M1017.6,404.92l-2.61.28c-.87.1-1.7.13-2.55.2l-2.52.18-2.47.08c.87-.09,1.72-.14,2.6-.25l2.65-.35c1.58,0,3.24-.07,4.9-.14"/><polyline class="cls-4" points="967.76 389.47 966.21 388.71 967.76 389.47"/><path class="cls-4" d="M1020.11,404.8c-.86.07-1.67.08-2.51.12.84,0,1.65-.05,2.51-.12"/><path class="cls-4" d="M1019.21,404.76l-1.61.16c-1.66.07-3.32.17-4.9.14l-2.75-.54c2.1,0,4.15.11,6.34,0-2.19.1-4.24,0-6.34,0,2.1,0,4.15.11,6.34,0l2.92.23"/><path class="cls-4" d="M1020.11,404.8c-.86.07-1.67.08-2.51.12l1.61-.16.9,0"/><path class="cls-4" d="M1017.6,404.92c-1.66.07-3.32.17-4.9.14,1.58,0,3.24-.07,4.9-.14"/><path class="cls-4" d="M1016.29,404.53c-2.19.1-4.24,0-6.34,0,2.1,0,4.15.11,6.34,0"/><path class="cls-4" d="M1012.7,405.06l-2.65.35c-.88.11-1.73.16-2.6.25-.88-.23-1.78-.42-2.64-.66,2.58.07,5.17.16,7.89.06"/><path class="cls-4" d="M1007.45,405.66c-.88-.23-1.78-.42-2.64-.66.86.24,1.76.43,2.64.66"/><path class="cls-4" d="M1012.7,405.06l-2.65.35c-.88.11-1.73.16-2.6.25.87-.09,1.72-.14,2.6-.25l2.65-.35"/><path class="cls-4" d="M1012.7,405.06c-2.72.1-5.31,0-7.89-.06l-4.24-1.58,4.18.68,4.33.51.87-.09,2.75.54"/><path class="cls-4" d="M1012.7,405.06c-2.72.1-5.31,0-7.89-.06,2.58.07,5.17.16,7.89.06"/><polyline class="cls-4" points="986.01 396.75 984.49 396.58 986.01 396.75"/><path class="cls-4" d="M984.49,396.58c-.5-.05-1-.17-1.54-.25L980,394.8l-2.92-1.69c1.22.59,2.48,1.28,3.69,1.81l3.68,1.66"/><path class="cls-4" d="M984.49,396.58c-.5-.05-1-.17-1.54-.25.51.08,1,.2,1.54.25"/><polyline class="cls-4" points="982.95 396.33 980.04 394.8 977.12 393.11 980.04 394.8 982.95 396.33"/><path class="cls-4" d="M992.63,401c-1.55-.38-3.08-.84-4.6-1.23l1.57-.19c1,.46,2,1,3,1.42"/><path class="cls-4" d="M1010,404.52l-.87.09A89.46,89.46,0,0,1,992.63,401a92.91,92.91,0,0,0,17.32,3.57"/><path class="cls-4" d="M1010,404.52l-.87.09.87-.09-.87.09.87-.09"/><path class="cls-4" d="M1010,404.52l-.87.09.87-.09"/><path class="cls-4" d="M915.38,445.15q-7.75-5-15.14-10.24c2.86,1.86,5.7,3.75,8.64,5.54l4.39,2.72c1.47.9,3,1.77,4.47,2.65l-2.36-.67"/><path class="cls-4" d="M907.15,442.8c-2.26-1.88-4.43-3.82-6.61-5.75l-3.25-2.88c-.3-.26-.5-.45-.71-.65l-.64-.62-1.3-1.23,1.77,1.36.92.7,1.1.82,4.39,3.26c2.92,2.2,6,4.28,9,6.43l-4.65-1.44"/><path class="cls-4" d="M891.14,445.53c-1.28-.57-2.43-1.18-3.76-1.78l-4.2-1.75q-2.26-.84-4.47-1.69c-1.47-.57-3.06-1.07-4.55-1.64l-2.24-.83-2.28-.8q-2.26-.81-4.44-1.68c-3-1.06-5.81-2.29-8.58-3.51,1.67.41,3.26.9,4.89,1.35s3.25.9,4.82,1.4c3.14,1,6.33,2,9.3,3.09l-1-.28,2.36.95c.78.31,1.57.63,2.29,1l4.4,2,4,2.09,3.43,2.09"/><path class="cls-4" d="M891.14,445.53l-3.43-2.09-4-2.09-4.4-2c-.72-.35-1.51-.67-2.29-1l-2.36-.95,1,.28c1.48.61,3,1.21,4.36,1.87s2.84,1.28,4.13,1.95l3.8,2c1.08.69,2.15,1.36,3.22,2"/><path class="cls-4" d="M891.14,445.53l-3.43-2.09-4-2.09-4.4-2c-.72-.35-1.51-.67-2.29-1l-2.36-.95,2.36.95c.78.31,1.57.63,2.29,1l4.4,2,4,2.09,3.43,2.09"/><path class="cls-4" d="M902.63,441l-4.77-3.94c3.09,1.9,6.12,3.86,9.29,5.7-1.51-.58-3-1.15-4.52-1.76"/><path class="cls-4" d="M950.15,458.07c-2.37-.89-4.76-1.75-7-2.75,2.29,1,4.68,1.86,7,2.75"/><path class="cls-4" d="M1185.9,399.38c.69-.61,1.37-1.2,2-1.75s1.36-1.12,2-1.65c.87-.94,1.82-1.8,2.77-2.71s2-1.72,3-2.6a74.6,74.6,0,0,0-8.75,2.67c-2.87,1.1-5.77,2.5-8.83,4s-6.26,2.91-9.58,4.24c-1.66.66-3.34,1.32-5.07,1.93s-3.48,1.24-5.26,1.87c1.58-.21,3.2-.37,4.78-.65a103.64,103.64,0,0,1-21.12,5.77c-6.58,1.22-13,2.16-19.71,3.83,5-.62,10.24-1.41,15.66-2.29l8.24-1.43c2.76-.57,5.56-1,8.33-1.71,5.56-1.2,11.11-2.6,16.51-4.31,2.68-.88,5.37-1.8,7.88-2.75l3.68-1.35c1.14-.39,2.31-.8,3.37-1.09"/><polyline class="cls-4" points="1099.88 424.23 1095.37 425.36 1099.88 424.23"/><path class="cls-4" d="M1158.28,405.36c-2.19.78-4.43,1.44-6.63,2.16,2.2-.72,4.44-1.38,6.63-2.16"/><polyline class="cls-4" points="1106.76 422.98 1099.88 424.23 1106.76 422.98"/><path class="cls-4" d="M950,449.61c-2.3-.84-4.52-1.82-6.75-2.75-2.12-1.29-4.17-2.68-6.21-4.06,2.14,1.1,4.28,2.2,6.49,3.21s4.37,2.1,6.64,3l-.17.58"/><path class="cls-4" d="M949.85,450.18c-2.25-1-4.41-2.2-6.58-3.32,2.23.93,4.45,1.91,6.75,2.75l-.17.57"/><path class="cls-4" d="M951.13,454.61c-1.88-1-3.78-1.87-5.59-2.91-2.16-1.29-4.33-2.54-6.44-3.86l-6.24-4c2.71,1.33,5.4,2.73,8.16,4l4.17,1.92,2.1,1,2.13.89,1.71,3"/><path class="cls-4" d="M951,454.9c-1.84-1.07-3.72-2.07-5.5-3.2,1.81,1,3.71,1.94,5.59,2.91l-.09.29"/><path class="cls-4" d="M952,456.11c-2.65-1.35-5.32-2.62-7.86-4.07s-5.12-2.8-7.58-4.31c2.92,1.42,6,2.67,9,4,1.78,1.13,3.66,2.13,5.5,3.2l1,1.21"/><path class="cls-4" d="M950.19,449c-2.27-.92-4.44-2-6.64-3s-4.35-2.11-6.49-3.21c2,1.38,4.09,2.77,6.21,4.06-12.34-4.94-26.38-11.33-37.41-18.24,6.47,2.5,12.88,5.13,19.27,7.8,11,4.57,22.15,9.11,33.91,12.23-2.95.23-5.88.3-8.85.38"/><path class="cls-4" d="M950.19,449c-2.27-.92-4.44-2-6.64-3s-4.35-2.11-6.49-3.21c2.14,1.1,4.28,2.2,6.49,3.21s4.37,2.1,6.64,3"/><path class="cls-4" d="M965,449.43c-17.24-5.48-35.53-13.7-45.57-22.48l3.45,1.46c11,4.72,20,9.45,29.55,13.61,2.39,1,4.78,2.07,7.27,3l3.76,1.38,3.9,1.21a85.66,85.66,0,0,0,17.21,3.34l2,.14c-2.94-.84-6.26-1.91-9.76-3l-5.32-1.8c-1.8-.6-3.59-1.33-5.38-2s-3.55-1.42-5.28-2.16-3.42-1.46-5-2.28-3.17-1.55-4.63-2.31-2.81-1.6-4.07-2.37a229.7,229.7,0,0,0,25.11,10.54,153.66,153.66,0,0,0,26.32,6.62A150.28,150.28,0,0,1,965,449.43"/><path class="cls-4" d="M940.53,433.21c-3.46-2.2-6.81-4.63-10.16-7s-6.6-4.82-9.82-7.36c2.93,1.8,5.9,3.47,8.88,5.17,1.79,1.6,3.64,3.08,5.48,4.63l2.79,2.3,2.83,2.22"/><path class="cls-4" d="M891,402.22c-1.15-.5-2.29-.92-3.43-1.35l-1.09-.63c1.51.66,3,1.24,4.52,2"/><path class="cls-4" d="M910.64,413.28l-2.37-1.62c-.81-.55-1.79-1.14-2.68-1.71-1.2-.72-2.41-1.5-3.61-2.15l-3.63-2-1.83-1L894.7,404,891,402.22c-1.15-.5-2.29-.92-3.43-1.35,2,.82,4,1.79,5.93,2.73l3,1.41,2.94,1.56,2.93,1.57,2.92,1.74c1,.58,2,1.18,2.86,1.75l2.51,1.65m-5-3.33c-1.2-.72-2.41-1.5-3.61-2.15l-3.63-2-1.83-1L894.7,404,891,402.22,894.7,404l1.82.88,1.83,1,3.63,2c1.2.65,2.41,1.43,3.61,2.15"/><path class="cls-4" d="M929.43,424.06c-3-1.7-5.95-3.37-8.88-5.17-2.46-1.44-4.92-2.87-7.35-4.38l-3.65-2.24c-.62-.38-1.17-.74-1.86-1.13l-2.1-1.19c-1.2-.72-2.41-1.5-3.61-2.15l-3.63-2-1.83-1L894.7,404,891,402.22c-1.51-.74-3-1.32-4.52-2l1.09.63c-7-3.9-14.11-7.24-21.32-10.53,8.69,2.13,17.37,4.54,26.11,7.59,1.53,1,3.11,2,4.72,2.94s3.29,2.13,5,3.2,3.42,2.29,5.14,3.49l1.3.9.65.45.54.42,2.18,1.68,4.4,3.38,4.44,3.28c2.94,2.22,5.88,4.3,8.7,6.39"/><path class="cls-4" d="M929.43,424.06c-3-1.7-5.95-3.37-8.88-5.17,2.93,1.8,5.9,3.47,8.88,5.17"/><path class="cls-4" d="M891,402.22c-1.51-.74-3-1.32-4.52-2,1.51.66,3,1.24,4.52,2"/><path class="cls-4" d="M905.59,410c-1.2-.72-2.41-1.5-3.61-2.15l-3.63-2-1.83-1L894.7,404,891,402.22,894.7,404l1.82.88,1.83,1,3.63,2c1.2.65,2.41,1.43,3.61,2.15"/><path class="cls-4" d="M905.59,410c-1.2-.72-2.41-1.5-3.61-2.15l-3.63-2-1.83-1L894.7,404,891,402.22,894.7,404l1.82.88,1.83,1,3.63,2c1.2.65,2.41,1.43,3.61,2.15"/><path class="cls-4" d="M885.75,393.78c-13.06-4.57-24.77-8-34-11.91,9.7,1.24,19.45,2.93,29.34,5.09l-4.1.82,4.43,3c1.46,1,2.91,2,4.37,3"/><path class="cls-4" d="M638.71,454.92l-4.2.81-2.13.41c-.69.15-1.35.34-2,.51.68-.63,1.31-1.3,2.07-1.88l6.29.15"/><path class="cls-4" d="M313.76,523.8A155.73,155.73,0,0,1,288,495.55a119.54,119.54,0,0,1-14.54-27.34,255.2,255.2,0,0,0,30.22,19c8.4,4.8,17,9.38,25.21,13.56S345,508.63,351.81,512c1.7.83,3.34,1.66,4.9,2.49s3.05,1.55,4.44,2.33a82.87,82.87,0,0,1,7.21,4.41c3.95,2.88,6.11,5.47,5.61,8-.28,1.43-1.44,2.8-3.63,4.09-19.61-2.09-39.54-5.11-56.58-9.56"/><path class="cls-4" d="M468.92,532.1l-5.28-.23a39.81,39.81,0,0,0,5.31-2.18l4.37-2.36a58,58,0,0,1,5.5-2.51c2.26-.86,5-1.8,8.67-2.81-1.68,3.53-10,6.91-18.57,10.09"/><path class="cls-4" d="M420.1,541.33A101.82,101.82,0,0,0,402,537.18c-6.59-1.09-13.66-1.76-20.92-2.62-3.55-.33-7.14-.84-10.75-1.2,2.19-1.29,3.35-2.66,3.63-4.09.5-2.53-1.66-5.12-5.61-8a82.87,82.87,0,0,0-7.21-4.41c-1.39-.78-2.88-1.53-4.44-2.33s-3.2-1.66-4.9-2.49c-6.82-3.41-14.7-7.1-22.93-11.29s-16.81-8.76-25.21-13.56c3.24,1.78,6.62,3.3,9.94,4.94l5.08,2.26,2.54,1.13,2.58,1,5.16,2.07,5.24,1.89c1.74.65,3.5,1.22,5.27,1.78s3.53,1.17,5.32,1.68c7.11,2.13,14.35,3.86,21.64,5.33s14.67,2.45,22.07,3.19a241,241,0,0,0,29.67,1c28.68-.81,57-6.63,83.72-16l-4.2-1.5c-6.51,1.77-13.06,3.52-19.66,5-6.41,1.49-12.84,2.91-19.27,4-2,.39-4,.68-6,1A215.78,215.78,0,0,1,417.39,509,134.44,134.44,0,0,1,385.26,505a429.64,429.64,0,0,0,47.7-1.54c10.61-.94,21.22-2.19,31.68-3.82,31.44-4.75,61.68-12.43,87.91-19.35,9.34-2.58,22.48-8.55,35-15.67q-8.85,5.13-17.91,9.78l-.82,3.52q13.71-3.84,27.33-8.77-3.29,1.72-6.57,3.39-12,6.27-24.27,11.67-11.13,5-22.54,9.28c-4.71,1.74-9.4,3.54-14.06,5.44h0c-14.6,5.87-29.45,12.47-46.43,17.87,6.92-1.18,13.78-2.63,20.61-4.24,3.6-.18,5.48.13,6.08.88,1.27,1.6-3.64,5.27-11.16,9a144.3,144.3,0,0,1-26.28,9.72c-.88,0-1.76,0-2.64-.08,8.55-3.18,16.89-6.56,18.57-10.09-3.64,1-6.41,2-8.67,2.81a58,58,0,0,0-5.5,2.51L469,529.69a39.81,39.81,0,0,1-5.31,2.18c-1.89-.86-3.79-1.79-5.65-2.69-6,0-12-.26-18-.61,2.07-1.44,1.74-2.24.13-2.69a42.07,42.07,0,0,0-7.55-.78,82.12,82.12,0,0,1-8.67-.81c-2.34-.47-3.76-1.13-3.18-2.2a261.61,261.61,0,0,1-29.5-3.57c-1.35.27-2.71.56-4.08.8L383,520c-2.75.49-5.52.86-8.31,1.22,10.81,4,22.36,7.22,31.13,10.21s14.78,5.95,14.25,9.88"/><path class="cls-4" d="M374,529.27c.5-2.53-1.66-5.12-5.61-8a82.87,82.87,0,0,0-7.21-4.41c-1.39-.78-2.88-1.53-4.44-2.33s-3.2-1.66-4.9-2.49c-6.82-3.41-14.7-7.1-22.93-11.29s-16.81-8.76-25.21-13.56c8.4,4.8,17,9.38,25.21,13.56S345,508.63,351.81,512c1.7.83,3.34,1.66,4.9,2.49s3.05,1.55,4.44,2.33a82.87,82.87,0,0,1,7.21,4.41c3.95,2.88,6.11,5.47,5.61,8"/><path class="cls-4" d="M463.64,531.87a39.81,39.81,0,0,0,5.31-2.18l4.37-2.36a58,58,0,0,1,5.5-2.51c2.26-.86,5-1.8,8.67-2.81-3.64,1-6.41,2-8.67,2.81a58,58,0,0,0-5.5,2.51L469,529.69a39.81,39.81,0,0,1-5.31,2.18"/><path class="cls-4" d="M612.71,462.38c-5.55,2.48-11,4.7-16.52,6.79q-3.29,1.72-6.57,3.39-12,6.27-24.27,11.67l-.8,1.1q10.83-4.27,21.48-9.2-11.17,6.45-22.69,12.18c9.71-2.58,20.65-8.32,31.47-14.37,6-3.65,12-7.44,17.9-11.56m-23.09,10.18q-12,6.27-24.27,11.67,12.28-5.42,24.27-11.67"/><path class="cls-4" d="M589.62,472.56q-12,6.27-24.27,11.67,12.28-5.42,24.27-11.67"/><polyline class="cls-4" points="465.21 533.4 463.64 531.87 468.92 532.1 465.21 533.4"/><polyline class="cls-4" points="356.36 478.12 355.89 475.82 356.36 478.12"/><path class="cls-5" d="M485.79,559.79a62.23,62.23,0,0,1-11.36-.94,21.8,21.8,0,0,1-6.73-2.35,7.13,7.13,0,0,1-3.83-7c.34-5.31,4.18-11.55,1.34-16l3.71-1.31c.88,0,1.76,0,2.64.08a144.3,144.3,0,0,0,26.28-9.72c7.52-3.73,12.43-7.4,11.16-9-.6-.75-2.48-1.06-6.08-.88-6.83,1.61-13.69,3.06-20.61,4.24,17-5.4,31.83-12,46.43-17.87,4.67-1.9,9.36-3.7,14.07-5.44q11.4-4.29,22.54-9.28l-.8,1.1q-10,4.53-20.27,8.51a96.23,96.23,0,0,0,20.33-6.72c7.16-3.15,14.47-7.05,21.42-11q-11.17,6.45-22.69,12.18c9.71-2.58,20.65-8.32,31.47-14.37l-2.37,3.23q7.92-1.34,15.95-3.06c-8.92,4.26-17.85,8.05-26.85,11.56q-3.6,3.75-7.3,7.44a135.13,135.13,0,0,0,19.44-1.6,111,111,0,0,0,26-7.67c-13,5.9-24.7,9.41-37.47,13.38s-26.46,8.26-43.71,14.49l-1.31,3.46c-2.58.43-5.18.77-7.76,1.15,5.07.78,12.3-.12,19.38-1.18s14-2.29,18.6-1.7q-11.55,3-23.18,5.3c1.22,1.26,4.78,1.33,8.59,1.09s7.92-.71,10.28-.32c-9.67,2.24-16.16,1.16-22.73.62s-13.21-.56-23.66,3.06l-1,.33-1.48.49c-9.35,3.13-16.29,5.85-21.14,8.37s-7.6,4.9-8.57,7.09c-2,4.39,3.33,8.25,12.88,10-2.76.24-5.54.4-8.3.59-7.09,2.6-7.13,4.12-5.76,5.47s4.13,2.47,2.39,4.26"/><path class="cls-4" d="M509,513.46c-.6-.75-2.48-1.06-6.08-.88-6.83,1.61-13.69,3.06-20.61,4.24,6.92-1.18,13.78-2.63,20.61-4.24,3.6-.18,5.48.13,6.08.88"/><path class="cls-4" d="M482.31,516.82c17-5.4,31.83-12,46.43-17.87-14.6,5.87-29.45,12.47-46.43,17.87"/><path class="cls-4" d="M586,476.13q-11.17,6.45-22.69,12.18,11.52-5.71,22.69-12.18"/><polyline class="cls-4" points="564.55 485.33 565.35 484.23 564.55 485.33"/><path class="cls-5" d="M619.79,444.43l3.23-2.62a25.54,25.54,0,0,1,1.86-2l1.94-2c-2,.8-4,1.53-5.88,2.49,1.87-1,3.9-1.69,5.88-2.49l-.14-2.63a135.21,135.21,0,0,0-14.81,4.68c1.23-.74,2.63-1.28,3.94-1.92l4-1.84L613.29,438c-1.11.3-2.13.74-3.19,1.13l-3.19,1.21c2.5-1.27,4.88-2.66,7.49-3.7l3.83-1.66,1.9-.83,2-.71-.7-1.32c-.92.26-1.87.46-2.76.78l-2.69.91q-2.28,1.1-4.59,2.26c-1.5.82-2.94,1.75-4.43,2.64l-2.21,1.36-1.11.68-1.13.76q-2.28,1.51-4.56,2.94a138.65,138.65,0,0,1-18.11,9.84c4.87-3.45,9.79-6.8,14.73-10.21,2.61-1.8,5.22-3.64,7.83-5.49l4-2.62,2-1.31a22.25,22.25,0,0,1,2-1.25l4.21-2.34c1.41-.77,2.79-1.62,4.28-2.28l4.41-2.12,2.21-1.08c.74-.36,1.51-.65,2.27-1l4-2.4-6.27,2.07-6.23,2.52c-1,.43-2.11.82-3.13,1.3l-3,1.45L610,431c-1,.47-2,.93-3,1.48-1.93,1.05-3.85,2.08-5.75,3.06-1,.49-1.87,1-2.75,1.46s-1.78.92-2.67,1.34a65.57,65.57,0,0,1-10.06,4l3-2.08c2.43-1.65,4.79-3.2,7.08-4.7l1.71-1.1.84-.55.92-.55c1.22-.72,2.43-1.43,3.63-2.11s2.39-1.36,3.58-2l3.67-1.68c2.44-1.07,4.79-2.21,7.29-3,9.76-3.8,19.76-6.48,31.28-10.3l1.84-.62c-1.48.14-3.07.31-4.73.53s-3.42.43-5.19.82L635.25,416c-.93.2-1.88.38-2.82.61l-2.8.75L624,418.89c-1.88.48-3.66,1.15-5.45,1.68l-5.18,1.61c-1.63.59-3.2,1.14-4.69,1.64a135.22,135.22,0,0,1,13.48-5.12c2.25-.7,4.52-1.29,6.74-1.91l3.33-.9,3.35-.72,6.64-1.39,6.63-1,3.28-.5c1.1-.17,2.21-.26,3.31-.39l6.56-.7c.74-.22,1.48-.42,2.24-.6,22.68-4.56,43.46-5.81,64.1-6.3-4.42-.24-8.87-.57-13.32-.72s-8.93-.33-13.4-.29c4.47,0,9,.18,13.4.29s8.9.48,13.32.72a456.93,456.93,0,0,1,48.49,2.4,428.84,428.84,0,0,1,46.82,7.4c-4-1.35-8-2.79-12.11-4l-6.12-1.94-6.17-1.82c2-.25,4.08-.45,6.15-.57s4.18-.14,6.29-.14c4.22-.05,8.48.25,12.7.52s8.39.75,12.44,1.17,8,.82,11.69,1.18c-23.41-5.94-44-11.27-67.25-13.18,23.26,1.91,43.84,7.24,67.25,13.18l4.56.47c-9.17-4.1-20.15-7.28-31.26-9.95-5.55-1.37-11.15-2.5-16.59-3.69s-10.72-2.25-15.66-3.31c1.75.18,3.47.4,5.15.63s3.35.55,5,.84c3.3.59,6.55,1.21,9.86,1.92s6.69,1.33,10.24,2,7.29,1.27,11.32,1.88l-4.47-1.77-6.95-1,6.95,1a199.83,199.83,0,0,1,39.49,10.64l5.52-.26c1.87,0,3.78,0,5.72,0,1,0,2,0,2.93.05l3,.18c2,.15,4,.24,6,.55s4.09.56,6.15,1,4.12.93,6.2,1.51c1,.33,2.07.68,3.11,1l1.55.55c.53.19,1,.38,1.48.56q2.79,1.1,5.51,2.32c2.39,1.17,4.81,2.24,7.22,3.33-2.46-1.44-4.92-2.87-7.35-4.38l-3.65-2.24c-.62-.38-1.17-.74-1.86-1.13l-2.1-1.19c.89.57,1.87,1.16,2.68,1.71l2.37,1.62-2.51-1.65c-.9-.57-1.91-1.17-2.86-1.75l-2.92-1.74-2.93-1.57L896.48,405l-3-1.41c-2-.94-4-1.91-5.93-2.73-7-3.9-14.11-7.24-21.32-10.53,8.69,2.13,17.37,4.54,26.11,7.59-2.21-1.47-4.4-2.76-6.64-4.15-13.06-4.57-24.77-8-34-11.91,9.7,1.24,19.45,2.93,29.34,5.09l4.55.14,4.63.32c1.55.12,3.09.19,4.68.37l4.79.55q-.47-2.83-1-5.7a64.09,64.09,0,0,0-8.81-5.42c-1.71-.92-3.44-1.68-5.32-2.51s-3.87-1.67-5.89-2.38a150.15,150.15,0,0,0-28.13-7.08l-3.74-.52.57,4.63-5.76-3.87-11.54,1.88-11-1.74a40,40,0,0,1-10.67,1.86,97,97,0,0,1-12.28-.05c-4.28-.17-8.71-.6-13.14-.94s-8.88-.74-13.18-.86c2.46.49,4.9,1,7.34,1.6a32.68,32.68,0,0,1-13.55,2.44c-7.38.05-15.32-1.17-22-1.38-4.91-.76-9.87-1.26-14.85-1.88l-1.33.14.53-.24-.55-.06-10.58.49c-3.53.18-7.08.5-10.62.74-3.8-.21-7.64-.17-11.48-.25-2.17-.2-4.34-.39-6.53-.5,2.19.11,4.36.3,6.53.5l7.63-.19-6.51-.88,6.38-.16c2.11,0,4.22,0,6.33,0-2.12-.07-4.23-.18-6.36-.22l-6.42-.07c-2.14,0-4.28-.07-6.44,0l-6.49.14-4.52.34-4.55.48,2.49-.82c-4,0-8,0-12,.11l-6.34.69c-2.11.25-4.23.44-6.37.8l-6.43,1-3.22.5c-1.08.17-2.17.41-3.25.61l-8.43,3.28c-2.81,1.19-5.63,2.45-8.44,3.68l7.07-3.34c2.36-1.09,4.71-2,7.07-3,2.57-1.05,5.17-2.17,7.73-3.07-2.21.52-4.44,1.19-6.67,1.85l-6.69,2c-2.23.67-4.5,1.51-6.74,2.27s-4.49,1.53-6.76,2.41l.78-1.95a166.7,166.7,0,0,0-38.83,18.65l-1.34.93-2.78,2.13-1.38,1.06-.64.5-.34.3c-.88.79-1.89,1.63-2.89,2.47-2,1.69-4.19,3.41-6.4,5.11,1.88-1.6,3.72-3.22,5.46-4.81.87-.8,1.73-1.59,2.52-2.36l1.16-1.14.14-.14.3-.24.6-.49,1.2-1-3-1.22-.61.45-.27.21-.15.11-.58.48-1.22,1-2.61,2.14c-1.8,1.48-3.66,3-5.6,4.54a111.89,111.89,0,0,1-12.49,8.74,64.62,64.62,0,0,1-6.82,3.53l2-.45Q534.6,418,528,421.48q-10.58,7.35-20.93,13.92c2.37-.22,4.74-.45,7.12-.72-2.38.27-4.75.5-7.12.72-12.44,7.87-24.51,14.87-35.75,21.2s-21.64,11.91-30.75,17.24c14.14-3.61,27.95-8.64,39.07-14.7,17.07-7.79,33.86-15.79,51.34-24.44l5.78-2.87Q528.15,439,519,445.65l1-.42c-1.35,1.27-2.72,2.51-4.1,3.75,1-1.11,2.11-2.2,3.14-3.33-15.37,6.77-28.59,13.14-41.86,18.6s-26.59,9.91-41.58,11.68c1.67-.7,3.33-1.37,5-2.09A225.33,225.33,0,0,1,387.93,480c-3.42,1-6.87,1.77-10.39,2.6s-7.06,1.48-10.66,2c5.58,1.4,11.24,2.42,16.93,3.38-3.27,0-6.57.17-9.86.07-.75.13-2.54.18-4.24.24s-3.29.1-3.64.41.07.5,1.19.94c.56.23,1.33.49,2.34.79s2.28.58,3.83.93,3.39.75,5.56,1.09,4.67.78,7.55,1.11A187.16,187.16,0,0,0,408.61,495c6.29-.17,12.58-.49,18.84-1.16-20.91,3.84-40.14,5.12-56.78,6.76l3.61,1.22c1.2.4,2.42.74,3.63,1.12l3.66,1.11,3.69,1a429.71,429.71,0,0,0,47.7-1.54c10.61-.94,21.22-2.18,31.68-3.82,31.44-4.75,61.68-12.43,87.91-19.35,9.34-2.58,22.48-8.55,35-15.67l2-1.27c-2.31.86-4.61,1.69-6.92,2.5q4.92-2.26,9.8-4.69-8.38,2.54-16.76,4.63c6.85-2.38,13.67-4.94,20.47-7.76l2.67-2.51c-5.55,2.55-11.12,4.92-16.72,7.15,6.22-2.72,12.4-5.62,18.54-8.76q1.65-1.86,3.27-3.76c1.44-.59,2.87-1.2,4.32-1.84.76-.36,1.35-.53,2-.77l1.9-.67,3.75-1.33a18.3,18.3,0,0,1,1.9-.59l1.94-.54M772,395.05c4.36.59,8.56,1.3,12.74,2.07s8.35,1.64,12.64,2.58,8.71,1.81,13.4,2.78,9.65,1.89,15,2.74c-5.4-.85-10.35-1.86-15-2.74s-9.11-1.85-13.4-2.78-8.46-1.73-12.64-2.58-8.38-1.48-12.74-2.07l-7-.91c-1.55-.1-3.11-.23-4.67-.28,1.56.05,3.12.18,4.67.28l7,.91-1.17.9-9.3-.46-9.32-.27,9.32.27,9.3.46,1.17-.9M676,405a72.22,72.22,0,0,1,11.24-1.31c3.53-.12,6.86-.18,10.18,0s6.56.23,9.92.3a95.42,95.42,0,0,0,10.55-.32,95.42,95.42,0,0,1-10.55.32c-3.36-.07-6.61-.15-9.92-.3s-6.65-.12-10.18,0A72.22,72.22,0,0,0,676,405m-13.61,3.22-1.12.32-5.69,1.31c-1.91.43-3.81.87-5.68,1.42,1.87-.55,3.77-1,5.68-1.42l5.69-1.31,1.12-.32c3.47-.55,6.74-1,9.9-1.31s6.25-.45,9.3-.65l2.29-.15,2.31-.09,4.67-.22,4.8-.29c1.64-.09,3.32-.19,5-.32-1.72.13-3.4.23-5,.32l-4.8.29-4.67.22-2.31.09-2.29.15c-3,.2-6.13.35-9.3.65s-6.43.76-9.9,1.31m96.75-11.64-6.94,1,6.94-1m-303.55,90.7a255.25,255.25,0,0,1-28.17,6.53,255.25,255.25,0,0,0,28.17-6.53m0,0a255.25,255.25,0,0,1-28.17,6.53,255.25,255.25,0,0,0,28.17-6.53m0,0,4.28-1.1,4.2-1.48c1.42-.39,2.83-.81,4.24-1.24l3.93-1.51.41-.15,4-1.3c1.37-.55,2.72-1.16,4.09-1.73s2.77-1,4.14-1.48l4-1.83,4-1.89c1-.42,2-.88,3-1.32,1.32-.66,2.65-1.29,3.95-2l3.93-2,3.88-2.09c1-.56,1.9-1.15,2.85-1.74,1.28-.72,2.57-1.42,3.83-2.16l2.68-2.07c-15.17,7.14-28.07,13.63-41.33,19.39l-1.45.58-1.08.5c-1.63.71-3.28,1.34-4.93,2l-1.19.45c-1.37.54-2.77,1-4.16,1.51l-2.31.94c-1.67.59-3.33,1.15-5,1.71m-71.81.69c1.87.25,3.77.47,5.69.68,1.31.15,2.66.17,4,.26s2.88.25,4.33.3l4.32-.1c1.81,0,3.63-.11,5.43-.16l2.59-.32c2.35-.26,4.69-.53,7-.92l.1,0,4.28-.75-4.28.75,4.28-.75-4.28.75h0c1.45-.25,2.88-.48,4.32-.76-1.73.35-3.63.65-5.57.88l-3,.24c-1.8.13-3.59.24-5.39.29l-1.7.09-2.52.05-2.53,0-3-.13c-1,0-2.06,0-3.09,0-3.81-.09-7.51-.32-11-.35M847.39,369.36l-.13.89c1.61.55,3.2,1.05,4.81,1.64-1.56-.88-3.11-1.69-4.68-2.53"/><path class="cls-4" d="M455.62,487.28c5.58-1.59,11.15-3.41,16.65-5.33l-3.93,1.51c-1.41.43-2.82.85-4.24,1.24l-4.2,1.48-4.28,1.1"/><path class="cls-4" d="M460.65,485.57l2.31-.94c1.39-.51,2.79-1,4.16-1.51l1.19-.45c-2.51,1-5.07,1.94-7.66,2.9"/><path class="cls-4" d="M472.68,481.8c16.43-5.84,32.06-13.32,44.42-21.61l-2.68,2.07c-1.26.74-2.55,1.44-3.83,2.16-.95.59-1.89,1.18-2.85,1.74l-3.88,2.09-3.93,2c-1.3.68-2.63,1.31-3.95,2-1,.44-2,.9-3,1.32l-4,1.89-4,1.83c-1.37.52-2.76,1-4.14,1.48s-2.72,1.18-4.09,1.73l-4,1.3"/><path class="cls-4" d="M473.24,480.66l1.08-.5,1.45-.58-2.53,1.08"/><path class="cls-4" d="M725.43,366.56l.53-.24.8.1-1.33.14"/><path class="cls-4" d="M514.17,434.68c-2.38.27-4.75.5-7.12.72,2.37-.22,4.74-.45,7.12-.72"/><path class="cls-4" d="M910.64,413.28l-2.37-1.62c-.81-.55-1.79-1.14-2.68-1.71.89.57,1.87,1.16,2.68,1.71l2.37,1.62"/><path class="cls-4" d="M892.39,397.93c-8.74-3.05-17.42-5.46-26.11-7.59,8.69,2.13,17.37,4.54,26.11,7.59"/><path class="cls-4" d="M851.71,381.87c9.7,1.24,19.45,2.93,29.34,5.09-9.89-2.16-19.64-3.85-29.34-5.09"/><path class="cls-4" d="M455.62,487.28l4.28-1.1,4.2-1.48c1.42-.39,2.83-.81,4.24-1.24l3.93-1.51-3.93,1.51c-1.41.43-2.82.85-4.24,1.24l-4.2,1.48-4.28,1.1"/><path class="cls-4" d="M460.65,485.57l2.31-.94c1.39-.51,2.79-1,4.16-1.51l1.19-.45-1.19.45c-1.37.54-2.77,1-4.16,1.51l-2.31.94"/><path class="cls-4" d="M472.68,481.8l4-1.3c1.37-.55,2.72-1.16,4.09-1.73s2.77-1,4.14-1.48l4-1.83,4-1.89c1-.42,2-.88,3-1.32,1.32-.66,2.65-1.29,3.95-2l3.93-2,3.88-2.09c1-.56,1.9-1.15,2.85-1.74,1.28-.72,2.57-1.42,3.83-2.16l2.68-2.07-2.68,2.07c-1.26.74-2.55,1.44-3.83,2.16-.95.59-1.89,1.18-2.85,1.74l-3.88,2.09-3.93,2c-1.3.68-2.63,1.31-3.95,2-1,.44-2,.9-3,1.32l-4,1.89-4,1.83c-1.37.52-2.76,1-4.14,1.48s-2.72,1.18-4.09,1.73l-4,1.3"/><polyline class="cls-4" points="473.24 480.66 474.32 480.16 475.77 479.58 474.32 480.16 473.24 480.66"/><path class="cls-4" d="M427.45,493.81a255.25,255.25,0,0,0,28.17-6.53,255.25,255.25,0,0,1-28.17,6.53"/><path class="cls-4" d="M427.45,493.81a255.25,255.25,0,0,0,28.17-6.53,255.25,255.25,0,0,1-28.17,6.53"/><path class="cls-4" d="M587.59,464.64c-12.56,7.12-25.7,13.09-35,15.67-26.23,6.92-56.47,14.6-87.91,19.35,31.44-4.75,61.68-12.43,87.91-19.35,9.34-2.58,22.48-8.55,35-15.67"/><path class="cls-4" d="M385.26,505a429.71,429.71,0,0,0,47.7-1.54,429.64,429.64,0,0,1-47.7,1.54"/><path class="cls-4" d="M397.83,489.21c-1.45,0-2.89-.2-4.33-.3a109.62,109.62,0,0,0,16.67-.28l-2.59.32c-1.8.05-3.62.18-5.43.16l-4.32.1"/><path class="cls-4" d="M394.79,488.32c1,0,2,0,3.09,0l3,.13c-2,0-4,0-6-.13"/><path class="cls-4" d="M405.89,488.44l1.7-.09c1.8-.05,3.59-.16,5.39-.29l3-.24c-3.21.34-6.62.58-10.12.62"/><path class="cls-4" d="M417.2,487.71h.1l-.1,0"/><polyline class="cls-4" points="359.35 479.2 361.48 479.4 359.35 479.2"/><path class="cls-4" d="M366.88,484.59c-3.27-.77-6.47-1.8-9.65-2.76s-6.3-2.12-9.35-3.39A185.69,185.69,0,0,1,330,470.25a315,315,0,0,1-33.45-20.56c1.3.42,2.58.87,3.9,1.24l3.92,1.11c2.59.78,5.22,1.4,7.82,2l-2.1-.47c1.47.9,3.14,1.95,5,2.94s3.91,2,6.06,3.1,4.44,2.08,6.75,3.09c7,3.1,14.44,5.87,20.67,8.46l3.61,2.37c1.22.77,2.46,1.5,3.7,2.26l-.08.29.55,2c-2.19,0-4.42.1-6.62,0,1.59.26,3.21.39,4.81.58s3.19.39,4.8.49l2.13.19a205.33,205.33,0,0,0,26.45.56c-3.42,1-6.87,1.77-10.39,2.6s-7.06,1.48-10.66,2"/><path class="cls-4" d="M321.16,459.64c-2.15-1.05-4.18-2.12-6.06-3.1s-3.55-2-5-2.94c1.47.9,3.14,1.95,5,2.94s3.91,2,6.06,3.09,4.45,2.09,6.76,3.1c-2.31-1-4.58-2.1-6.75-3.09"/><polyline class="cls-4" points="310.08 453.6 312.18 454.07 310.08 453.6"/><polyline class="cls-4" points="356.36 478.12 355.81 476.11 355.89 475.82 356.36 478.12"/><path class="cls-4" d="M366.88,484.59c3.6-.55,7.17-1.31,10.66-2s7-1.61,10.39-2.6c-3.42,1-6.87,1.77-10.39,2.6s-7.06,1.48-10.66,2"/><path class="cls-4" d="M358.11,502.51a147,147,0,0,1-27.23-9.28,199.71,199.71,0,0,1-25.78-14.06c8,.81,18.42,2.7,29.36,4a190.25,190.25,0,0,0,32.42,1.41c5.58,1.4,11.24,2.42,16.93,3.38-3.27,0-6.57.17-9.86.07-.75.13-2.54.18-4.24.24s-3.29.1-3.64.41.07.5,1.19.94c.56.23,1.33.49,2.34.79s2.28.58,3.83.93,3.39.75,5.56,1.09,4.67.78,7.55,1.11A187.16,187.16,0,0,0,408.61,495c6.29-.17,12.58-.49,18.84-1.16-20.91,3.84-40.14,5.12-56.78,6.76l3.61,1.22c1.2.4,2.42.74,3.63,1.12l3.66,1.11,3.69,1c-3.13,0-6.24-.14-9.38-.27a54.36,54.36,0,0,1-6.05-.3,67.36,67.36,0,0,1-6.83-1c-1.59-.28-3.22-.56-4.89-1"/><path class="cls-4" d="M370.67,500.57c16.64-1.64,35.87-2.92,56.78-6.76-20.91,3.84-40.14,5.12-56.78,6.76"/><path class="cls-4" d="M366.07,488.69c.35-.31,1.95-.38,3.64-.41s3.49-.11,4.24-.24c3.29.1,6.59,0,9.86-.07-3.27,0-6.57.17-9.86.07-.75.13-2.54.18-4.24.24s-3.29.1-3.64.41"/><path class="cls-4" d="M418.18,513.47a241,241,0,0,1-29.67-1q-11.1-1.11-22.07-3.19c-7.29-1.47-14.53-3.2-21.64-5.33-1.79-.51-3.55-1.12-5.32-1.68s-3.53-1.13-5.27-1.78L329,498.63l-5.16-2.07-2.58-1-2.54-1.13-5.08-2.26c-3.32-1.64-6.7-3.16-9.94-4.94-1.92-1.18-3.88-2.26-5.76-3.47s-3.81-2.36-5.72-3.51c-3.75-2.42-7.57-4.71-11.27-7.16l-3.76-2.39-3.71-2.45a105.65,105.65,0,0,1-4.09-16.38,67.33,67.33,0,0,1-.72-15,246,246,0,0,0,27.9,12.88A315,315,0,0,0,330,470.25a185.69,185.69,0,0,0,17.89,8.19c3.05,1.27,6.2,2.29,9.35,3.39s6.38,2,9.65,2.76a190.25,190.25,0,0,1-32.42-1.41c-10.94-1.31-21.33-3.2-29.36-4a199.71,199.71,0,0,0,25.78,14.06,147,147,0,0,0,27.23,9.28h0c1.66.42,3.29.7,4.88,1a67.36,67.36,0,0,0,6.83,1,54.36,54.36,0,0,0,6.05.3c3.14.13,6.25.28,9.38.27A134.44,134.44,0,0,0,417.39,509a216.85,216.85,0,0,0,35.37-2.86c2-.34,4-.63,6-1,6.44-1.13,12.86-2.55,19.27-4,6.6-1.53,13.15-3.28,19.66-5l4.2,1.5c-26.75,9.36-55,15.18-83.72,16"/><path class="cls-4" d="M418.18,513.47c28.68-.81,57-6.63,83.72-16-26.75,9.36-55,15.18-83.72,16"/><path class="cls-4" d="M388.51,512.5q-11.1-1.11-22.07-3.19c-7.29-1.47-14.53-3.2-21.64-5.33-1.79-.51-3.55-1.12-5.32-1.68s-3.53-1.13-5.27-1.78L329,498.63l-5.16-2.07-2.58-1-2.54-1.13-5.08-2.26c-3.32-1.64-6.7-3.16-9.94-4.94,3.24,1.78,6.62,3.3,9.94,4.94l5.08,2.26,2.54,1.13,2.58,1,5.16,2.07,5.24,1.89c1.74.65,3.5,1.22,5.27,1.78s3.53,1.17,5.32,1.68c7.11,2.13,14.35,3.86,21.64,5.33s14.67,2.45,22.07,3.19"/><path class="cls-4" d="M478,501c-6.41,1.49-12.83,2.91-19.27,4-2,.39-4,.68-6,1A216.85,216.85,0,0,1,417.39,509a215.78,215.78,0,0,0,35.37-2.87c2-.33,4-.62,6-1,6.43-1.13,12.86-2.55,19.27-4"/><path class="cls-4" d="M358.12,502.51h0c1.67.42,3.3.7,4.89,1-1.59-.28-3.22-.56-4.88-1"/><path class="cls-4" d="M305.1,479.17c8,.81,18.42,2.7,29.36,4a190.25,190.25,0,0,0,32.42,1.41,190.25,190.25,0,0,1-32.42-1.41c-10.94-1.31-21.33-3.2-29.36-4"/><path class="cls-4" d="M303.67,487.19a255.2,255.2,0,0,1-30.22-19l3.71,2.45,3.76,2.39c3.7,2.45,7.52,4.74,11.27,7.16q2.87,1.73,5.72,3.51c1.88,1.21,3.84,2.29,5.76,3.47"/><path class="cls-4" d="M303.67,487.19a255.2,255.2,0,0,1-30.22-19,255.2,255.2,0,0,0,30.22,19"/></g></g></g></svg>